<svg xmlns="http://www.w3.org/2000/svg" viewBox="0 0 720 370">
<style>text{font-family:"WenQuanYi Zen Hei","Noto Sans CJK SC","PingFang SC","Microsoft YaHei",sans-serif}</style>
<rect width="720" height="370" fill="#ffffff"/>
<text x="360" y="28" text-anchor="middle" font-size="16" font-weight="700" fill="#111827">不等式解集的数轴表示</text>
<text x="45" y="73" font-size="13" font-weight="700" fill="#2563eb">x &gt; 2</text>
<line x1="75" y1="65" x2="705" y2="65" stroke="#374151" stroke-width="1.5"/>
<polygon points="705,65 697,61 697,69" fill="#374151"/>
<line x1="120" y1="59" x2="120" y2="71" stroke="#9ca3af"/>
<text x="120" y="85" text-anchor="middle" font-size="10" fill="#9ca3af">-2</text>
<line x1="210" y1="59" x2="210" y2="71" stroke="#9ca3af"/>
<text x="210" y="85" text-anchor="middle" font-size="10" fill="#9ca3af">-1</text>
<line x1="300" y1="59" x2="300" y2="71" stroke="#9ca3af"/>
<text x="300" y="85" text-anchor="middle" font-size="10" fill="#9ca3af">0</text>
<line x1="390" y1="59" x2="390" y2="71" stroke="#9ca3af"/>
<text x="390" y="85" text-anchor="middle" font-size="10" fill="#9ca3af">1</text>
<line x1="480" y1="59" x2="480" y2="71" stroke="#9ca3af"/>
<text x="480" y="85" text-anchor="middle" font-size="10" fill="#9ca3af">2</text>
<line x1="570" y1="59" x2="570" y2="71" stroke="#9ca3af"/>
<text x="570" y="85" text-anchor="middle" font-size="10" fill="#9ca3af">3</text>
<line x1="660" y1="59" x2="660" y2="71" stroke="#9ca3af"/>
<text x="660" y="85" text-anchor="middle" font-size="10" fill="#9ca3af">4</text>
<circle cx="480" cy="65" r="5" fill="none" stroke="#2563eb" stroke-width="2.5"/>
<line x1="486" y1="65" x2="705" y2="65" stroke="#2563eb" stroke-width="3" stroke-linecap="round"/>
<text x="45" y="143" font-size="13" font-weight="700" fill="#16a34a">x ≥ −1</text>
<line x1="75" y1="135" x2="705" y2="135" stroke="#374151" stroke-width="1.5"/>
<polygon points="705,135 697,131 697,139" fill="#374151"/>
<line x1="120" y1="129" x2="120" y2="141" stroke="#9ca3af"/>
<text x="120" y="155" text-anchor="middle" font-size="10" fill="#9ca3af">-2</text>
<line x1="210" y1="129" x2="210" y2="141" stroke="#9ca3af"/>
<text x="210" y="155" text-anchor="middle" font-size="10" fill="#9ca3af">-1</text>
<line x1="300" y1="129" x2="300" y2="141" stroke="#9ca3af"/>
<text x="300" y="155" text-anchor="middle" font-size="10" fill="#9ca3af">0</text>
<line x1="390" y1="129" x2="390" y2="141" stroke="#9ca3af"/>
<text x="390" y="155" text-anchor="middle" font-size="10" fill="#9ca3af">1</text>
<line x1="480" y1="129" x2="480" y2="141" stroke="#9ca3af"/>
<text x="480" y="155" text-anchor="middle" font-size="10" fill="#9ca3af">2</text>
<line x1="570" y1="129" x2="570" y2="141" stroke="#9ca3af"/>
<text x="570" y="155" text-anchor="middle" font-size="10" fill="#9ca3af">3</text>
<line x1="660" y1="129" x2="660" y2="141" stroke="#9ca3af"/>
<text x="660" y="155" text-anchor="middle" font-size="10" fill="#9ca3af">4</text>
<circle cx="210" cy="135" r="5" fill="#16a34a" stroke="#16a34a" stroke-width="2"/>
<line x1="216" y1="135" x2="705" y2="135" stroke="#16a34a" stroke-width="3" stroke-linecap="round"/>
<text x="45" y="213" font-size="13" font-weight="700" fill="#ea580c">x &lt; 1</text>
<line x1="75" y1="205" x2="705" y2="205" stroke="#374151" stroke-width="1.5"/>
<polygon points="705,205 697,201 697,209" fill="#374151"/>
<line x1="120" y1="199" x2="120" y2="211" stroke="#9ca3af"/>
<text x="120" y="225" text-anchor="middle" font-size="10" fill="#9ca3af">-2</text>
<line x1="210" y1="199" x2="210" y2="211" stroke="#9ca3af"/>
<text x="210" y="225" text-anchor="middle" font-size="10" fill="#9ca3af">-1</text>
<line x1="300" y1="199" x2="300" y2="211" stroke="#9ca3af"/>
<text x="300" y="225" text-anchor="middle" font-size="10" fill="#9ca3af">0</text>
<line x1="390" y1="199" x2="390" y2="211" stroke="#9ca3af"/>
<text x="390" y="225" text-anchor="middle" font-size="10" fill="#9ca3af">1</text>
<line x1="480" y1="199" x2="480" y2="211" stroke="#9ca3af"/>
<text x="480" y="225" text-anchor="middle" font-size="10" fill="#9ca3af">2</text>
<line x1="570" y1="199" x2="570" y2="211" stroke="#9ca3af"/>
<text x="570" y="225" text-anchor="middle" font-size="10" fill="#9ca3af">3</text>
<line x1="660" y1="199" x2="660" y2="211" stroke="#9ca3af"/>
<text x="660" y="225" text-anchor="middle" font-size="10" fill="#9ca3af">4</text>
<circle cx="390" cy="205" r="5" fill="none" stroke="#ea580c" stroke-width="2.5"/>
<line x1="75" y1="205" x2="384" y2="205" stroke="#ea580c" stroke-width="3" stroke-linecap="round"/>
<text x="45" y="283" font-size="13" font-weight="700" fill="#7c3aed">−1 &lt; x ≤ 2</text>
<line x1="75" y1="275" x2="705" y2="275" stroke="#374151" stroke-width="1.5"/>
<polygon points="705,275 697,271 697,279" fill="#374151"/>
<line x1="120" y1="269" x2="120" y2="281" stroke="#9ca3af"/>
<text x="120" y="295" text-anchor="middle" font-size="10" fill="#9ca3af">-2</text>
<line x1="210" y1="269" x2="210" y2="281" stroke="#9ca3af"/>
<text x="210" y="295" text-anchor="middle" font-size="10" fill="#9ca3af">-1</text>
<line x1="300" y1="269" x2="300" y2="281" stroke="#9ca3af"/>
<text x="300" y="295" text-anchor="middle" font-size="10" fill="#9ca3af">0</text>
<line x1="390" y1="269" x2="390" y2="281" stroke="#9ca3af"/>
<text x="390" y="295" text-anchor="middle" font-size="10" fill="#9ca3af">1</text>
<line x1="480" y1="269" x2="480" y2="281" stroke="#9ca3af"/>
<text x="480" y="295" text-anchor="middle" font-size="10" fill="#9ca3af">2</text>
<line x1="570" y1="269" x2="570" y2="281" stroke="#9ca3af"/>
<text x="570" y="295" text-anchor="middle" font-size="10" fill="#9ca3af">3</text>
<line x1="660" y1="269" x2="660" y2="281" stroke="#9ca3af"/>
<text x="660" y="295" text-anchor="middle" font-size="10" fill="#9ca3af">4</text>
<circle cx="210" cy="275" r="5" fill="none" stroke="#7c3aed" stroke-width="2.5"/>
<circle cx="480" cy="275" r="5" fill="#7c3aed" stroke="#7c3aed" stroke-width="2"/>
<line x1="216" y1="275" x2="474" y2="275" stroke="#7c3aed" stroke-width="3" stroke-linecap="round"/>
</svg>