<svg xmlns="http://www.w3.org/2000/svg" viewBox="0 0 760 470">
<style>text{font-family:"WenQuanYi Zen Hei","Noto Sans CJK SC","PingFang SC","Microsoft YaHei",sans-serif}.t{font-size:17px;font-weight:700;fill:#111827}.ln{font-size:14px;font-weight:700}.an{font-size:15px;font-weight:700}.lg{font-size:12px;fill:#374151}.lb{font-size:12px;font-weight:600}</style>
<rect width="760" height="460" fill="#ffffff"/>
<text x="375" y="30" text-anchor="middle" class="t">三线八角 — 平行线的判定与性质</text>
<line x1="40" y1="120" x2="680" y2="120" stroke="#2563eb" stroke-width="2.5"/>
<text x="690" y="124" class="ln" fill="#2563eb">a</text>
<line x1="40" y1="340" x2="680" y2="340" stroke="#2563eb" stroke-width="2.5"/>
<text x="690" y="344" class="ln" fill="#2563eb">b</text>
<line x1="60" y1="50" x2="660" y2="410" stroke="#ea580c" stroke-width="2.5"/>
<text x="645" y="395" class="ln" fill="#ea580c">c</text>
<line x1="55" y1="115" x2="75" y2="115" stroke="#2563eb" stroke-width="1.8"/>
<line x1="55" y1="125" x2="75" y2="125" stroke="#2563eb" stroke-width="1.8"/>
<line x1="55" y1="335" x2="75" y2="335" stroke="#2563eb" stroke-width="1.8"/>
<line x1="55" y1="345" x2="75" y2="345" stroke="#2563eb" stroke-width="1.8"/>
<path d="M 208.7,120.0 A 32,32 0 0,1 204.1,103.5" fill="none" stroke="#dc2626" stroke-width="2.5" stroke-linecap="round"/>
<text x="228.7" y="105.6" text-anchor="middle" class="an" fill="#dc2626">1</text>
<path d="M 204.1,103.5 A 32,32 0 0,1 144.7,120.0" fill="none" stroke="#2563eb" stroke-width="2.5" stroke-linecap="round"/>
<text x="162.3" y="68.0" text-anchor="middle" class="an" fill="#2563eb">2</text>
<path d="M 144.7,120.0 A 32,32 0 0,1 149.2,136.5" fill="none" stroke="#059669" stroke-width="2.5" stroke-linecap="round"/>
<text x="124.6" y="134.4" text-anchor="middle" class="an" fill="#059669">3</text>
<path d="M 149.2,136.5 A 32,32 0 0,1 208.7,120.0" fill="none" stroke="#d97706" stroke-width="2.5" stroke-linecap="round"/>
<text x="191.1" y="172.0" text-anchor="middle" class="an" fill="#d97706">4</text>
<circle cx="176.7" cy="120" r="3.5" fill="#111827"/>
<path d="M 575.3,340.0 A 32,32 0 0,1 570.8,323.5" fill="none" stroke="#dc2626" stroke-width="2.5" stroke-linecap="round"/>
<text x="595.4" y="325.6" text-anchor="middle" class="an" fill="#dc2626">5</text>
<path d="M 570.8,323.5 A 32,32 0 0,1 511.3,340.0" fill="none" stroke="#2563eb" stroke-width="2.5" stroke-linecap="round"/>
<text x="528.9" y="288.0" text-anchor="middle" class="an" fill="#2563eb">6</text>
<path d="M 511.3,340.0 A 32,32 0 0,1 515.9,356.5" fill="none" stroke="#059669" stroke-width="2.5" stroke-linecap="round"/>
<text x="491.3" y="354.4" text-anchor="middle" class="an" fill="#059669">7</text>
<path d="M 515.9,356.5 A 32,32 0 0,1 575.3,340.0" fill="none" stroke="#d97706" stroke-width="2.5" stroke-linecap="round"/>
<text x="557.7" y="392.0" text-anchor="middle" class="an" fill="#d97706">8</text>
<circle cx="543.3" cy="340" r="3.5" fill="#111827"/>
<rect x="30" y="390" width="690" height="58" rx="8" fill="#f8fafc" stroke="#d1d5db" stroke-width="1.5"/>
<text x="50" y="412" class="lb" fill="#dc2626">同位角</text>
<text x="120" y="412" class="lg">∠1=∠5</text>
<line x1="200" y1="403" x2="200" y2="420" stroke="#e5e7eb" stroke-width="1"/>
<text x="225" y="412" class="lb" fill="#2563eb">同位角</text>
<text x="295" y="412" class="lg">∠2=∠6</text>
<line x1="375" y1="403" x2="375" y2="420" stroke="#e5e7eb" stroke-width="1"/>
<text x="400" y="412" class="lb" fill="#059669">同位角</text>
<text x="470" y="412" class="lg">∠3=∠7</text>
<line x1="550" y1="403" x2="550" y2="420" stroke="#e5e7eb" stroke-width="1"/>
<text x="575" y="412" class="lb" fill="#d97706">同位角</text>
<text x="645" y="412" class="lg">∠4=∠8</text>
<text x="50" y="435" class="lb" fill="#059669">内错角</text>
<text x="120" y="435" class="lg">∠3=∠6</text>
<line x1="200" y1="426" x2="200" y2="443" stroke="#e5e7eb" stroke-width="1"/>
<text x="215" y="435" class="lb" fill="#d97706">内错角</text>
<text x="285" y="435" class="lg">∠4=∠5</text>
<line x1="365" y1="426" x2="365" y2="443" stroke="#e5e7eb" stroke-width="1"/>
<text x="380" y="435" class="lb" fill="#7c3aed">同旁内角</text>
<text x="470" y="435" class="lg">∠3+∠5=180°</text>
<line x1="570" y1="426" x2="570" y2="443" stroke="#e5e7eb" stroke-width="1"/>
<text x="585" y="435" class="lb" fill="#7c3aed">同旁内角</text>
<text x="670" y="435" class="lg">∠4+∠6=180°</text>
</svg>