<svg xmlns="http://www.w3.org/2000/svg" viewBox="0 0 1000 700">
  <defs>
    <marker id="at" markerWidth="8" markerHeight="6" refX="8" refY="3" orient="auto">
      <polygon points="0 0, 8 3, 0 6" fill="#64748b"/>
    </marker>
    <filter id="sh">
      <feDropShadow dx="1" dy="2" stdDeviation="3" flood-opacity="0.08"/>
    </filter>
  </defs>
  <rect width="1000" height="700" fill="#ffffff"/>
  <text x="500" y="38" text-anchor="middle" font-family="Arial, sans-serif" font-size="20" font-weight="bold" fill="#1e293b">3DGS 论文生态演化树 · 2023-2026</text>
  <rect x="390" y="60" width="220" height="48" rx="10" fill="#7c3aed" opacity="0.9" filter="url(#sh)"/>
  <text x="500" y="82" text-anchor="middle" font-family="Arial, sans-serif" font-size="14" font-weight="bold" fill="#ffffff">3DGS · SIGGRAPH 2023</text>
  <text x="500" y="98" text-anchor="middle" font-family="Arial, sans-serif" font-size="10" fill="#ddd6fe">Kerbl et al. · 实时辐射场渲染</text>
  <line x1="500" y1="108" x2="155" y2="143" stroke="#2563eb" stroke-width="1.5" stroke-dasharray="4,3" marker-end="url(#at)"/>
  <rect x="60" y="145" width="190" height="160" rx="8" fill="#eff6ff" stroke="#2563eb" stroke-width="1.5" filter="url(#sh)"/>
  <rect x="60" y="145" width="190" height="36" rx="8" fill="#2563eb" opacity="0.15"/>
  <text x="155" y="168" text-anchor="middle" font-family="Arial, sans-serif" font-size="14" font-weight="bold" fill="#2563eb">反走样</text>
  <rect x="70" y="190" width="170" height="30" rx="5" fill="#ffffff" stroke="#e2e8f0" stroke-width="1"/>
  <rect x="70" y="190" width="4" height="30" rx="2" fill="#3b82f6"/>
  <text x="82" y="204" font-family="Arial, sans-serif" font-size="11" font-weight="bold" fill="#1e293b">Mip-Splatting</text>
  <text x="82" y="218" font-family="Arial, sans-serif" font-size="9" fill="#64748b">CVPR 2024</text>
  <rect x="70" y="230" width="170" height="30" rx="5" fill="#ffffff" stroke="#e2e8f0" stroke-width="1"/>
  <rect x="70" y="230" width="4" height="30" rx="2" fill="#60a5fa"/>
  <text x="82" y="244" font-family="Arial, sans-serif" font-size="11" font-weight="bold" fill="#1e293b">3D低通滤波</text>
  <text x="82" y="258" font-family="Arial, sans-serif" font-size="9" fill="#64748b">Alias-free</text>
  <line x1="500" y1="108" x2="335" y2="143" stroke="#059669" stroke-width="1.5" stroke-dasharray="4,3" marker-end="url(#at)"/>
  <rect x="240" y="145" width="190" height="160" rx="8" fill="#f0fdf4" stroke="#059669" stroke-width="1.5" filter="url(#sh)"/>
  <rect x="240" y="145" width="190" height="36" rx="8" fill="#059669" opacity="0.15"/>
  <text x="335" y="168" text-anchor="middle" font-family="Arial, sans-serif" font-size="14" font-weight="bold" fill="#059669">表面重建</text>
  <rect x="250" y="190" width="170" height="30" rx="5" fill="#ffffff" stroke="#e2e8f0" stroke-width="1"/>
  <rect x="250" y="190" width="4" height="30" rx="2" fill="#059669"/>
  <text x="262" y="204" font-family="Arial, sans-serif" font-size="11" font-weight="bold" fill="#1e293b">2DGS</text>
  <text x="262" y="218" font-family="Arial, sans-serif" font-size="9" fill="#64748b">SIGGRAPH 24</text>
  <rect x="250" y="230" width="170" height="30" rx="5" fill="#ffffff" stroke="#e2e8f0" stroke-width="1"/>
  <rect x="250" y="230" width="4" height="30" rx="2" fill="#10b981"/>
  <text x="262" y="244" font-family="Arial, sans-serif" font-size="11" font-weight="bold" fill="#1e293b">SuGaR</text>
  <text x="262" y="258" font-family="Arial, sans-serif" font-size="9" fill="#64748b">CVPR 2024</text>
  <rect x="250" y="270" width="170" height="30" rx="5" fill="#ffffff" stroke="#e2e8f0" stroke-width="1"/>
  <rect x="250" y="270" width="4" height="30" rx="2" fill="#34d399"/>
  <text x="262" y="284" font-family="Arial, sans-serif" font-size="11" font-weight="bold" fill="#1e293b">GSDF</text>
  <text x="262" y="298" font-family="Arial, sans-serif" font-size="9" fill="#64748b">NeurIPS 2024</text>
  <line x1="500" y1="108" x2="515" y2="143" stroke="#ea580c" stroke-width="1.5" stroke-dasharray="4,3" marker-end="url(#at)"/>
  <rect x="420" y="145" width="190" height="160" rx="8" fill="#fff7ed" stroke="#ea580c" stroke-width="1.5" filter="url(#sh)"/>
  <rect x="420" y="145" width="190" height="36" rx="8" fill="#ea580c" opacity="0.15"/>
  <text x="515" y="168" text-anchor="middle" font-family="Arial, sans-serif" font-size="14" font-weight="bold" fill="#ea580c">动态场景</text>
  <rect x="430" y="190" width="170" height="30" rx="5" fill="#ffffff" stroke="#e2e8f0" stroke-width="1"/>
  <rect x="430" y="190" width="4" height="30" rx="2" fill="#ea580c"/>
  <text x="442" y="204" font-family="Arial, sans-serif" font-size="11" font-weight="bold" fill="#1e293b">4DGS</text>
  <text x="442" y="218" font-family="Arial, sans-serif" font-size="9" fill="#64748b">CVPR 2024</text>
  <rect x="430" y="230" width="170" height="30" rx="5" fill="#ffffff" stroke="#e2e8f0" stroke-width="1"/>
  <rect x="430" y="230" width="4" height="30" rx="2" fill="#f97316"/>
  <text x="442" y="244" font-family="Arial, sans-serif" font-size="11" font-weight="bold" fill="#1e293b">DeformableGS</text>
  <text x="442" y="258" font-family="Arial, sans-serif" font-size="9" fill="#64748b">可变形体</text>
  <rect x="430" y="270" width="170" height="30" rx="5" fill="#ffffff" stroke="#e2e8f0" stroke-width="1"/>
  <rect x="430" y="270" width="4" height="30" rx="2" fill="#fb923c"/>
  <text x="442" y="284" font-family="Arial, sans-serif" font-size="11" font-weight="bold" fill="#1e293b">实时运动场</text>
  <text x="442" y="298" font-family="Arial, sans-serif" font-size="9" fill="#64748b">存储挑战</text>
  <line x1="500" y1="108" x2="695" y2="143" stroke="#7c3aed" stroke-width="1.5" stroke-dasharray="4,3" marker-end="url(#at)"/>
  <rect x="600" y="145" width="190" height="160" rx="8" fill="#f5f3ff" stroke="#7c3aed" stroke-width="1.5" filter="url(#sh)"/>
  <rect x="600" y="145" width="190" height="36" rx="8" fill="#7c3aed" opacity="0.15"/>
  <text x="695" y="168" text-anchor="middle" font-family="Arial, sans-serif" font-size="14" font-weight="bold" fill="#7c3aed">压缩存储</text>
  <rect x="610" y="190" width="170" height="30" rx="5" fill="#ffffff" stroke="#e2e8f0" stroke-width="1"/>
  <rect x="610" y="190" width="4" height="30" rx="2" fill="#7c3aed"/>
  <text x="622" y="204" font-family="Arial, sans-serif" font-size="11" font-weight="bold" fill="#1e293b">LightGaussian</text>
  <text x="622" y="218" font-family="Arial, sans-serif" font-size="9" fill="#64748b">15×-50×压缩</text>
  <rect x="610" y="230" width="170" height="30" rx="5" fill="#ffffff" stroke="#e2e8f0" stroke-width="1"/>
  <rect x="610" y="230" width="4" height="30" rx="2" fill="#8b5cf6"/>
  <text x="622" y="244" font-family="Arial, sans-serif" font-size="11" font-weight="bold" fill="#1e293b">Compact3D</text>
  <text x="622" y="258" font-family="Arial, sans-serif" font-size="9" fill="#64748b">矢量量化</text>
  <rect x="610" y="270" width="170" height="30" rx="5" fill="#ffffff" stroke="#e2e8f0" stroke-width="1"/>
  <rect x="610" y="270" width="4" height="30" rx="2" fill="#a78bfa"/>
  <text x="622" y="284" font-family="Arial, sans-serif" font-size="11" font-weight="bold" fill="#1e293b">EAGLES</text>
  <text x="622" y="298" font-family="Arial, sans-serif" font-size="9" fill="#64748b">码本编码</text>
  <line x1="500" y1="108" x2="875" y2="143" stroke="#dc2626" stroke-width="1.5" stroke-dasharray="4,3" marker-end="url(#at)"/>
  <rect x="780" y="145" width="190" height="160" rx="8" fill="#fef2f2" stroke="#dc2626" stroke-width="1.5" filter="url(#sh)"/>
  <rect x="780" y="145" width="190" height="36" rx="8" fill="#dc2626" opacity="0.15"/>
  <text x="875" y="168" text-anchor="middle" font-family="Arial, sans-serif" font-size="14" font-weight="bold" fill="#dc2626">自动驾驶</text>
  <rect x="790" y="190" width="170" height="30" rx="5" fill="#ffffff" stroke="#e2e8f0" stroke-width="1"/>
  <rect x="790" y="190" width="4" height="30" rx="2" fill="#dc2626"/>
  <text x="802" y="204" font-family="Arial, sans-serif" font-size="11" font-weight="bold" fill="#1e293b">DrivingGS</text>
  <text x="802" y="218" font-family="Arial, sans-serif" font-size="9" fill="#64748b">CVPR 2024</text>
  <rect x="790" y="230" width="170" height="30" rx="5" fill="#ffffff" stroke="#e2e8f0" stroke-width="1"/>
  <rect x="790" y="230" width="4" height="30" rx="2" fill="#ef4444"/>
  <text x="802" y="244" font-family="Arial, sans-serif" font-size="11" font-weight="bold" fill="#1e293b">StreetGS</text>
  <text x="802" y="258" font-family="Arial, sans-serif" font-size="9" fill="#64748b">街道场景</text>
  <rect x="790" y="270" width="170" height="30" rx="5" fill="#ffffff" stroke="#e2e8f0" stroke-width="1"/>
  <rect x="790" y="270" width="4" height="30" rx="2" fill="#f87171"/>
  <text x="802" y="284" font-family="Arial, sans-serif" font-size="11" font-weight="bold" fill="#1e293b">LiDAR先验</text>
  <text x="802" y="298" font-family="Arial, sans-serif" font-size="9" fill="#64748b">点云初始化</text>
  <rect x="30" y="335" width="940" height="200" rx="10" fill="#f8fafc" stroke="#e2e8f0" stroke-width="1.5" filter="url(#sh)"/>
  <text x="60" y="362" font-family="Arial, sans-serif" font-size="15" font-weight="bold" fill="#1e293b">2025-2026 新方向</text>
  <rect x="60" y="375" width="180" height="70" rx="8" fill="#ffffff" stroke="#8b5cf6" stroke-width="1.5"/>
  <rect x="60" y="375" width="6" height="70" rx="3" fill="#8b5cf6"/>
  <text x="78" y="396" font-family="Arial, sans-serif" font-size="13" font-weight="bold" fill="#8b5cf6">生成式3DGS</text>
  <text x="78" y="414" font-family="Arial, sans-serif" font-size="10" fill="#475569">单图→3D场景</text>
  <text x="78" y="430" font-family="Arial, sans-serif" font-size="10" fill="#64748b">GaussianObject, LGM</text>
  <rect x="260" y="375" width="180" height="70" rx="8" fill="#ffffff" stroke="#06b6d4" stroke-width="1.5"/>
  <rect x="260" y="375" width="6" height="70" rx="3" fill="#06b6d4"/>
  <text x="278" y="396" font-family="Arial, sans-serif" font-size="13" font-weight="bold" fill="#06b6d4">相机位姿联合优化</text>
  <text x="278" y="414" font-family="Arial, sans-serif" font-size="10" fill="#475569">不依赖SfM</text>
  <text x="278" y="430" font-family="Arial, sans-serif" font-size="10" fill="#64748b">CF-3DGS, DUSt3R</text>
  <rect x="460" y="375" width="180" height="70" rx="8" fill="#ffffff" stroke="#f59e0b" stroke-width="1.5"/>
  <rect x="460" y="375" width="6" height="70" rx="3" fill="#f59e0b"/>
  <text x="478" y="396" font-family="Arial, sans-serif" font-size="13" font-weight="bold" fill="#f59e0b">移动端推理</text>
  <text x="478" y="414" font-family="Arial, sans-serif" font-size="10" fill="#475569">手机GPU实时</text>
  <text x="478" y="430" font-family="Arial, sans-serif" font-size="10" fill="#64748b">MobileGS, FlashGS</text>
  <rect x="660" y="375" width="180" height="70" rx="8" fill="#ffffff" stroke="#10b981" stroke-width="1.5"/>
  <rect x="660" y="375" width="6" height="70" rx="3" fill="#10b981"/>
  <text x="678" y="396" font-family="Arial, sans-serif" font-size="13" font-weight="bold" fill="#10b981">3D语义/分割</text>
  <text x="678" y="414" font-family="Arial, sans-serif" font-size="10" fill="#475569">高斯+CLIP</text>
  <text x="678" y="430" font-family="Arial, sans-serif" font-size="10" fill="#64748b">LangSplat, Grouping</text>
  <rect x="860" y="375" width="180" height="70" rx="8" fill="#ffffff" stroke="#ef4444" stroke-width="1.5"/>
  <rect x="860" y="375" width="6" height="70" rx="3" fill="#ef4444"/>
  <text x="878" y="396" font-family="Arial, sans-serif" font-size="13" font-weight="bold" fill="#ef4444">大规模城市场景</text>
  <text x="878" y="414" font-family="Arial, sans-serif" font-size="10" fill="#475569">分区+合并</text>
  <text x="878" y="430" font-family="Arial, sans-serif" font-size="10" fill="#64748b">CityGS, VastGS</text>
  <rect x="30" y="560" width="940" height="115" rx="10" fill="#1e293b" filter="url(#sh)"/>
  <text x="500" y="590" text-anchor="middle" font-family="Arial, sans-serif" font-size="15" font-weight="bold" fill="#f1f5f9">性能里程碑（Mip-NeRF 360 测试集）</text>
  <rect x="60" y="608" width="165" height="50" rx="8" fill="#334155" stroke="#94a3b8" stroke-width="1.5"/>
  <text x="142" y="628" text-anchor="middle" font-family="Arial, sans-serif" font-size="13" font-weight="bold" fill="#94a3b8">Mip-NeRF 360</text>
  <text x="142" y="648" text-anchor="middle" font-family="Courier New, monospace" font-size="12" fill="#cbd5e1">0.06 FPS · 48h 训练</text>
  <rect x="240" y="608" width="165" height="50" rx="8" fill="#334155" stroke="#94a3b8" stroke-width="1.5"/>
  <text x="322" y="628" text-anchor="middle" font-family="Arial, sans-serif" font-size="13" font-weight="bold" fill="#94a3b8">Instant-NGP</text>
  <text x="322" y="648" text-anchor="middle" font-family="Courier New, monospace" font-size="12" fill="#cbd5e1">6.22 FPS · 5.5min 训练</text>
  <rect x="420" y="608" width="165" height="50" rx="8" fill="#334155" stroke="#94a3b8" stroke-width="1.5"/>
  <text x="502" y="628" text-anchor="middle" font-family="Arial, sans-serif" font-size="13" font-weight="bold" fill="#94a3b8">Plenoxels</text>
  <text x="502" y="648" text-anchor="middle" font-family="Courier New, monospace" font-size="12" fill="#cbd5e1">6.79 FPS · 11min 训练</text>
  <rect x="600" y="608" width="165" height="50" rx="8" fill="#334155" stroke="#4ade80" stroke-width="1.5"/>
  <text x="682" y="628" text-anchor="middle" font-family="Arial, sans-serif" font-size="13" font-weight="bold" fill="#4ade80">3DGS</text>
  <text x="682" y="648" text-anchor="middle" font-family="Courier New, monospace" font-size="12" fill="#cbd5e1">135 FPS · 22min 训练</text>
  <rect x="780" y="608" width="165" height="50" rx="8" fill="#334155" stroke="#60a5fa" stroke-width="1.5"/>
  <text x="862" y="628" text-anchor="middle" font-family="Arial, sans-serif" font-size="13" font-weight="bold" fill="#60a5fa">LightGaussian</text>
  <text x="862" y="648" text-anchor="middle" font-family="Courier New, monospace" font-size="12" fill="#cbd5e1">200+ FPS · 15× 压缩</text>
</svg>