<?xml version="1.0" encoding="UTF-8"?>
<svg xmlns="http://www.w3.org/2000/svg" viewBox="0 0 600 400" width="600" height="400">
  <rect width="600" height="400" fill="#fff"/>
  <text x="300" y="24" text-anchor="middle" font-size="16" font-weight="bold" font-family="sans-serif" fill="#222">概率密度函数 PDF 与累积分布函数 CDF</text>
  <line x1="50" y1="200" x2="550" y2="200" stroke="#ddd" stroke-dasharray="6,3"/>
  <text x="50" y="55" font-size="13" font-family="sans-serif" fill="#D32F2F" font-weight="bold">PDF f(x) = F′(x)</text>
  <text x="50" y="75" font-size="11" font-family="sans-serif" fill="#888">导数 ↓</text>
  <text x="50" y="245" font-size="13" font-family="sans-serif" fill="#1976D2" font-weight="bold">CDF F(x) = ∫ f(t)dt</text>
  <text x="50" y="265" font-size="11" font-family="sans-serif" fill="#888">积分 ↑</text>
  <line x1="100" y1="170" x2="500" y2="170" stroke="#999" stroke-width="1"/>
<line x1="128.6" y1="170" x2="128.6" y2="175" stroke="#999" stroke-width="1"/>
<text x="128.6" y="188" text-anchor="middle" font-size="10" font-family="sans-serif" fill="#666">-3</text>
<line x1="185.7" y1="170" x2="185.7" y2="175" stroke="#999" stroke-width="1"/>
<text x="185.7" y="188" text-anchor="middle" font-size="10" font-family="sans-serif" fill="#666">-2</text>
<line x1="242.9" y1="170" x2="242.9" y2="175" stroke="#999" stroke-width="1"/>
<text x="242.9" y="188" text-anchor="middle" font-size="10" font-family="sans-serif" fill="#666">-1</text>
<line x1="300.0" y1="170" x2="300.0" y2="175" stroke="#999" stroke-width="1"/>
<text x="300.0" y="188" text-anchor="middle" font-size="10" font-family="sans-serif" fill="#666">0</text>
<line x1="357.1" y1="170" x2="357.1" y2="175" stroke="#999" stroke-width="1"/>
<text x="357.1" y="188" text-anchor="middle" font-size="10" font-family="sans-serif" fill="#666">1</text>
<line x1="414.3" y1="170" x2="414.3" y2="175" stroke="#999" stroke-width="1"/>
<text x="414.3" y="188" text-anchor="middle" font-size="10" font-family="sans-serif" fill="#666">2</text>
<line x1="471.4" y1="170" x2="471.4" y2="175" stroke="#999" stroke-width="1"/>
<text x="471.4" y="188" text-anchor="middle" font-size="10" font-family="sans-serif" fill="#666">3</text>
  <polygon points="100.0,169.7 102.9,169.7 105.7,169.6 108.6,169.5 111.4,169.4 114.3,169.3 117.1,169.2 120.0,169.1 122.9,168.9 125.7,168.8 128.6,168.6 131.4,168.3 134.3,168.1 137.1,167.8 140.0,167.4 142.9,167.0 145.7,166.6 148.6,166.1 151.4,165.6 154.3,165.0 157.1,164.3 160.0,163.6 162.9,162.7 165.7,161.8 168.6,160.8 171.4,159.7 174.3,158.5 177.1,157.1 180.0,155.7 182.9,154.1 185.7,152.5 188.6,150.6 191.4,148.7 194.3,146.6 197.1,144.3 200.0,142.0 202.9,139.4 205.7,136.8 208.6,134.0 211.4,131.0 214.3,127.9 217.1,124.7 220.0,121.3 222.9,117.9 225.7,114.3 228.6,110.6 231.4,106.9 234.3,103.1 237.1,99.2 240.0,95.3 242.9,91.4 245.7,87.4 248.6,83.5 251.4,79.7 254.3,75.9 257.1,72.1 260.0,68.5 262.9,65.0 265.7,61.7 268.6,58.5 271.4,55.6 274.3,52.8 277.1,50.3 280.0,48.0 282.9,46.0 285.7,44.3 288.6,42.9 291.4,41.8 294.3,41.0 297.1,40.5 300.0,40.3 302.9,40.5 305.7,41.0 308.6,41.8 311.4,42.9 314.3,44.3 317.1,46.0 320.0,48.0 322.9,50.3 325.7,52.8 328.6,55.6 331.4,58.5 334.3,61.7 337.1,65.0 340.0,68.5 342.9,72.1 345.7,75.9 348.6,79.7 351.4,83.5 354.3,87.4 357.1,91.4 357.1,170" fill="#D32F2F" opacity="0.15"/>
  <polyline points="100.0,169.7 102.9,169.7 105.7,169.6 108.6,169.5 111.4,169.4 114.3,169.3 117.1,169.2 120.0,169.1 122.9,168.9 125.7,168.8 128.6,168.6 131.4,168.3 134.3,168.1 137.1,167.8 140.0,167.4 142.9,167.0 145.7,166.6 148.6,166.1 151.4,165.6 154.3,165.0 157.1,164.3 160.0,163.6 162.9,162.7 165.7,161.8 168.6,160.8 171.4,159.7 174.3,158.5 177.1,157.1 180.0,155.7 182.9,154.1 185.7,152.5 188.6,150.6 191.4,148.7 194.3,146.6 197.1,144.3 200.0,142.0 202.9,139.4 205.7,136.8 208.6,134.0 211.4,131.0 214.3,127.9 217.1,124.7 220.0,121.3 222.9,117.9 225.7,114.3 228.6,110.6 231.4,106.9 234.3,103.1 237.1,99.2 240.0,95.3 242.9,91.4 245.7,87.4 248.6,83.5 251.4,79.7 254.3,75.9 257.1,72.1 260.0,68.5 262.9,65.0 265.7,61.7 268.6,58.5 271.4,55.6 274.3,52.8 277.1,50.3 280.0,48.0 282.9,46.0 285.7,44.3 288.6,42.9 291.4,41.8 294.3,41.0 297.1,40.5 300.0,40.3 302.9,40.5 305.7,41.0 308.6,41.8 311.4,42.9 314.3,44.3 317.1,46.0 320.0,48.0 322.9,50.3 325.7,52.8 328.6,55.6 331.4,58.5 334.3,61.7 337.1,65.0 340.0,68.5 342.9,72.1 345.7,75.9 348.6,79.7 351.4,83.5 354.3,87.4 357.1,91.4 360.0,95.3 362.9,99.2 365.7,103.1 368.6,106.9 371.4,110.6 374.3,114.3 377.1,117.9 380.0,121.3 382.9,124.7 385.7,127.9 388.6,131.0 391.4,134.0 394.3,136.8 397.1,139.4 400.0,142.0 402.9,144.3 405.7,146.6 408.6,148.7 411.4,150.6 414.3,152.5 417.1,154.1 420.0,155.7 422.9,157.1 425.7,158.5 428.6,159.7 431.4,160.8 434.3,161.8 437.1,162.7 440.0,163.6 442.9,164.3 445.7,165.0 448.6,165.6 451.4,166.1 454.3,166.6 457.1,167.0 460.0,167.4 462.9,167.8 465.7,168.1 468.6,168.3 471.4,168.6 474.3,168.8 477.1,168.9 480.0,169.1 482.9,169.2 485.7,169.3 488.6,169.4 491.4,169.5 494.3,169.6 497.1,169.7 500.0,169.7" fill="none" stroke="#D32F2F" stroke-width="2"/>
  <text x="367.1" y="83.4" font-size="11" font-family="sans-serif" fill="#D32F2F">面积 = F(1)</text>
  <text x="357.1" y="202" text-anchor="middle" font-size="10" font-family="sans-serif" fill="#666">1</text>
  <line x1="100" y1="360" x2="500" y2="360" stroke="#999" stroke-width="1"/>
<line x1="128.6" y1="360" x2="128.6" y2="365" stroke="#999" stroke-width="1"/>
<text x="128.6" y="378" text-anchor="middle" font-size="10" font-family="sans-serif" fill="#666">-3</text>
<line x1="185.7" y1="360" x2="185.7" y2="365" stroke="#999" stroke-width="1"/>
<text x="185.7" y="378" text-anchor="middle" font-size="10" font-family="sans-serif" fill="#666">-2</text>
<line x1="242.9" y1="360" x2="242.9" y2="365" stroke="#999" stroke-width="1"/>
<text x="242.9" y="378" text-anchor="middle" font-size="10" font-family="sans-serif" fill="#666">-1</text>
<line x1="300.0" y1="360" x2="300.0" y2="365" stroke="#999" stroke-width="1"/>
<text x="300.0" y="378" text-anchor="middle" font-size="10" font-family="sans-serif" fill="#666">0</text>
<line x1="357.1" y1="360" x2="357.1" y2="365" stroke="#999" stroke-width="1"/>
<text x="357.1" y="378" text-anchor="middle" font-size="10" font-family="sans-serif" fill="#666">1</text>
<line x1="414.3" y1="360" x2="414.3" y2="365" stroke="#999" stroke-width="1"/>
<text x="414.3" y="378" text-anchor="middle" font-size="10" font-family="sans-serif" fill="#666">2</text>
<line x1="471.4" y1="360" x2="471.4" y2="365" stroke="#999" stroke-width="1"/>
<text x="471.4" y="378" text-anchor="middle" font-size="10" font-family="sans-serif" fill="#666">3</text>
<line x1="95" y1="360.0" x2="100" y2="360.0" stroke="#999" stroke-width="1"/>
<text x="90" y="364.0" text-anchor="end" font-size="9" font-family="sans-serif" fill="#666">0.0</text>
<line x1="95" y1="327.5" x2="100" y2="327.5" stroke="#999" stroke-width="1"/>
<text x="90" y="331.5" text-anchor="end" font-size="9" font-family="sans-serif" fill="#666">0.2</text>
<line x1="95" y1="295.0" x2="100" y2="295.0" stroke="#999" stroke-width="1"/>
<text x="90" y="299.0" text-anchor="end" font-size="9" font-family="sans-serif" fill="#666">0.5</text>
<line x1="95" y1="262.5" x2="100" y2="262.5" stroke="#999" stroke-width="1"/>
<text x="90" y="266.5" text-anchor="end" font-size="9" font-family="sans-serif" fill="#666">0.8</text>
<line x1="95" y1="230.0" x2="100" y2="230.0" stroke="#999" stroke-width="1"/>
<text x="90" y="234.0" text-anchor="end" font-size="9" font-family="sans-serif" fill="#666">1.0</text>
  <polyline points="100.0,360.0 102.9,360.0 105.7,360.0 108.6,359.9 111.4,359.9 114.3,359.9 117.1,359.9 120.0,359.9 122.9,359.9 125.7,359.9 128.6,359.8 131.4,359.8 134.3,359.8 137.1,359.7 140.0,359.7 142.9,359.6 145.7,359.5 148.6,359.5 151.4,359.4 154.3,359.3 157.1,359.2 160.0,359.1 162.9,358.9 165.7,358.8 168.6,358.6 171.4,358.4 174.3,358.2 177.1,357.9 180.0,357.7 182.9,357.4 185.7,357.0 188.6,356.7 191.4,356.3 194.3,355.8 197.1,355.3 200.0,354.8 202.9,354.2 205.7,353.6 208.6,352.9 211.4,352.1 214.3,351.3 217.1,350.4 220.0,349.5 222.9,348.5 225.7,347.4 228.6,346.3 231.4,345.0 234.3,343.7 237.1,342.4 240.0,340.9 242.9,339.4 245.7,337.8 248.6,336.1 251.4,334.3 254.3,332.5 257.1,330.5 260.0,328.5 262.9,326.5 265.7,324.3 268.6,322.1 271.4,319.9 274.3,317.6 277.1,315.2 280.0,312.8 282.9,310.3 285.7,307.8 288.6,305.3 291.4,302.8 294.3,300.2 297.1,297.6 300.0,295.0 302.9,292.4 305.7,289.8 308.6,287.2 311.4,284.7 314.3,282.2 317.1,279.7 320.0,277.2 322.9,274.8 325.7,272.4 328.6,270.1 331.4,267.9 334.3,265.7 337.1,263.5 340.0,261.5 342.9,259.5 345.7,257.5 348.6,255.7 351.4,253.9 354.3,252.2 357.1,250.6 360.0,249.1 362.9,247.6 365.7,246.3 368.6,245.0 371.4,243.7 374.3,242.6 377.1,241.5 380.0,240.5 382.9,239.6 385.7,238.7 388.6,237.9 391.4,237.1 394.3,236.4 397.1,235.8 400.0,235.2 402.9,234.7 405.7,234.2 408.6,233.7 411.4,233.3 414.3,233.0 417.1,232.6 420.0,232.3 422.9,232.1 425.7,231.8 428.6,231.6 431.4,231.4 434.3,231.2 437.1,231.1 440.0,230.9 442.9,230.8 445.7,230.7 448.6,230.6 451.4,230.5 454.3,230.5 457.1,230.4 460.0,230.3 462.9,230.3 465.7,230.2 468.6,230.2 471.4,230.2 474.3,230.1 477.1,230.1 480.0,230.1 482.9,230.1 485.7,230.1 488.6,230.1 491.4,230.1 494.3,230.0 497.1,230.0 500.0,230.0" fill="none" stroke="#1976D2" stroke-width="2"/>
  <circle cx="357.1" cy="250.6" r="4" fill="#1976D2"/>
  <text x="367.1" y="240.6" font-size="11" font-family="sans-serif" fill="#1976D2">F(1) ≈ 0.841</text>
  <line x1="357.1" y1="170" x2="357.1" y2="250.6" stroke="#888" stroke-width="1" stroke-dasharray="4,3" marker-end="url(#arrow)"/>
  <defs>
    <marker id="arrow" markerWidth="6" markerHeight="6" refX="6" refY="3" orient="auto">
      <path d="M0,0 L6,3 L0,6 Z" fill="#888"/>
    </marker>
  </defs>
  <text x="300" y="388" text-anchor="middle" font-size="10" font-family="sans-serif" fill="#888">PDF f(x) 是 CDF F(x) 的导数；F(1) = ∫ f(t)dt = PDF曲线下 -∞ 到 1 的面积</text>
</svg>