<?xml version="1.0" encoding="UTF-8"?>
<svg xmlns="http://www.w3.org/2000/svg" viewBox="0 0 960 680" width="960" height="680">
  <style>
    text { font-family: "Helvetica Neue", Helvetica, Arial, "PingFang SC", "Microsoft YaHei", "Microsoft JhengHei", "SimHei", sans-serif; }
  </style>
  <defs>
    <marker id="arrow-blue" markerWidth="10" markerHeight="7" refX="9" refY="3.5" orient="auto">
      <polygon points="0 0, 10 3.5, 0 7" fill="#2563eb"/>
    </marker>
    <marker id="arrow-green" markerWidth="10" markerHeight="7" refX="9" refY="3.5" orient="auto">
      <polygon points="0 0, 10 3.5, 0 7" fill="#059669"/>
    </marker>
    <marker id="arrow-orange" markerWidth="10" markerHeight="7" refX="9" refY="3.5" orient="auto">
      <polygon points="0 0, 10 3.5, 0 7" fill="#ea580c"/>
    </marker>
    <filter id="shadow" x="-2%" y="-2%" width="104%" height="108%">
      <feDropShadow dx="0" dy="1" stdDeviation="2" flood-color="#000000" flood-opacity="0.08"/>
    </filter>
  </defs>
  <rect width="960" height="680" fill="#ffffff"/>
  <text x="480" y="36" text-anchor="middle" font-size="18" font-weight="600" fill="#111827">Hermes Agent 工具生态系统</text>
  <rect x="40" y="60" width="880" height="90" rx="10" fill="#f8fafc" stroke="#e2e8f0" stroke-width="1" stroke-dasharray="4,3"/>
  <text x="52" y="78" font-size="11" fill="#94a3b8">输入层 Input Layer</text>
  <rect x="205" y="86" width="150" height="50" rx="8" fill="#ffffff" stroke="#d1d5db" stroke-width="1.5" filter="url(#shadow)"/>
  <text x="280" y="108" text-anchor="middle" font-size="14" font-weight="600" fill="#111827">QQ Bot</text>
  <text x="280" y="126" text-anchor="middle" font-size="11" fill="#6b7280">即时消息</text>
  <rect x="405" y="86" width="150" height="50" rx="8" fill="#ffffff" stroke="#d1d5db" stroke-width="1.5" filter="url(#shadow)"/>
  <text x="480" y="108" text-anchor="middle" font-size="14" font-weight="600" fill="#111827">Terminal</text>
  <text x="480" y="126" text-anchor="middle" font-size="11" fill="#6b7280">命令行开发</text>
  <rect x="605" y="86" width="150" height="50" rx="8" fill="#ffffff" stroke="#d1d5db" stroke-width="1.5" filter="url(#shadow)"/>
  <text x="680" y="108" text-anchor="middle" font-size="14" font-weight="600" fill="#111827">Cron</text>
  <text x="680" y="126" text-anchor="middle" font-size="11" fill="#6b7280">定时自治</text>
  <rect x="40" y="175" width="880" height="90" rx="10" fill="#eff6ff" stroke="#bfdbfe" stroke-width="1" stroke-dasharray="4,3"/>
  <text x="52" y="193" font-size="11" fill="#93c5fd">核心层 Agent Core</text>
  <rect x="230" y="201" width="200" height="50" rx="8" fill="#eff6ff" stroke="#bfdbfe" stroke-width="1.5" filter="url(#shadow)"/>
  <text x="330" y="223" text-anchor="middle" font-size="14" font-weight="600" fill="#1e40af">推理循环</text>
  <text x="330" y="241" text-anchor="middle" font-size="11" fill="#3b82f6">Reasoning Loop</text>
  <rect x="530" y="201" width="200" height="50" rx="8" fill="#eff6ff" stroke="#bfdbfe" stroke-width="1.5" filter="url(#shadow)"/>
  <text x="630" y="223" text-anchor="middle" font-size="14" font-weight="600" fill="#1e40af">规划器</text>
  <text x="630" y="241" text-anchor="middle" font-size="11" fill="#3b82f6">Planner</text>
  <path d="M 480 150 L 480 183" stroke="#2563eb" stroke-width="1.5" fill="none" marker-end="url(#arrow-blue)"/>
  <rect x="486" y="160" width="36" height="16" rx="3" fill="#ffffff" opacity="0.95"/>
  <text x="504" y="172" text-anchor="middle" font-size="10" fill="#6b7280">指令</text>
  <rect x="40" y="290" width="880" height="120" rx="10" fill="#f0fdf4" stroke="#bbf7d0" stroke-width="1" stroke-dasharray="4,3"/>
  <text x="52" y="308" font-size="11" fill="#86efac">记忆层 Memory Layer</text>
  <rect x="140" y="318" width="190" height="72" rx="8" fill="#f0fdf4" stroke="#86efac" stroke-width="1.5" filter="url(#shadow)"/>
  <text x="235" y="338" text-anchor="middle" font-size="13" font-weight="600" fill="#111827">Memory</text>
  <text x="235" y="356" text-anchor="middle" font-size="11" fill="#6b7280">持久事实</text>
  <text x="235" y="372" text-anchor="middle" font-size="11" fill="#6b7280">偏好/环境</text>
  <rect x="385" y="318" width="190" height="72" rx="8" fill="#faf5ff" stroke="#e9d5ff" stroke-width="1.5" filter="url(#shadow)"/>
  <text x="480" y="338" text-anchor="middle" font-size="13" font-weight="600" fill="#111827">Session Search</text>
  <text x="480" y="356" text-anchor="middle" font-size="11" fill="#6b7280">会话历史</text>
  <text x="480" y="372" text-anchor="middle" font-size="11" fill="#6b7280">跨对话回溯</text>
  <rect x="630" y="318" width="190" height="72" rx="8" fill="#fff7ed" stroke="#fed7aa" stroke-width="1.5" filter="url(#shadow)"/>
  <text x="725" y="338" text-anchor="middle" font-size="13" font-weight="600" fill="#111827">Skill 库</text>
  <text x="725" y="356" text-anchor="middle" font-size="11" fill="#6b7280">沉淀流程</text>
  <text x="725" y="372" text-anchor="middle" font-size="11" fill="#6b7280">自动加载</text>
  <path d="M 330 265 L 235 318" stroke="#059669" stroke-width="1.5" fill="none" marker-end="url(#arrow-green)"/>
  <path d="M 630 265 L 725 318" stroke="#059669" stroke-width="1.5" fill="none" marker-end="url(#arrow-green)"/>
  <path d="M 630 265 L 480 318" stroke="#059669" stroke-width="1.5" fill="none" stroke-dasharray="5,3" marker-end="url(#arrow-green)"/>
  <rect x="40" y="435" width="880" height="105" rx="10" fill="#fef2f2" stroke="#fecaca" stroke-width="1" stroke-dasharray="4,3"/>
  <text x="52" y="453" font-size="11" fill="#fca5a5">工具层 Tool Layer</text>
  <rect x="107" y="463" width="130" height="56" rx="8" fill="#fef2f2" stroke="#fecaca" stroke-width="1.5" filter="url(#shadow)"/>
  <text x="172" y="485" text-anchor="middle" font-size="12" font-weight="600" fill="#991b1b">web_search</text>
  <text x="172" y="505" text-anchor="middle" font-size="10" fill="#dc2626">网络检索</text>
  <rect x="261" y="463" width="130" height="56" rx="8" fill="#fef2f2" stroke="#fecaca" stroke-width="1.5" filter="url(#shadow)"/>
  <text x="326" y="485" text-anchor="middle" font-size="12" font-weight="600" fill="#991b1b">browser</text>
  <text x="326" y="505" text-anchor="middle" font-size="10" fill="#dc2626">浏览器操作</text>
  <rect x="415" y="463" width="130" height="56" rx="8" fill="#fef2f2" stroke="#fecaca" stroke-width="1.5" filter="url(#shadow)"/>
  <text x="480" y="485" text-anchor="middle" font-size="12" font-weight="600" fill="#991b1b">delegate_task</text>
  <text x="480" y="505" text-anchor="middle" font-size="10" fill="#dc2626">并行子代理</text>
  <rect x="569" y="463" width="130" height="56" rx="8" fill="#fef2f2" stroke="#fecaca" stroke-width="1.5" filter="url(#shadow)"/>
  <text x="634" y="485" text-anchor="middle" font-size="12" font-weight="600" fill="#991b1b">terminal</text>
  <text x="634" y="505" text-anchor="middle" font-size="10" fill="#dc2626">命令执行</text>
  <rect x="723" y="463" width="130" height="56" rx="8" fill="#fef2f2" stroke="#fecaca" stroke-width="1.5" filter="url(#shadow)"/>
  <text x="788" y="485" text-anchor="middle" font-size="12" font-weight="600" fill="#991b1b">send_message</text>
  <text x="788" y="505" text-anchor="middle" font-size="10" fill="#dc2626">消息投递</text>
  <path d="M 480 410 L 480 443" stroke="#2563eb" stroke-width="1.5" fill="none" marker-end="url(#arrow-blue)"/>
  <rect x="486" y="418" width="48" height="16" rx="3" fill="#ffffff" opacity="0.95"/>
  <text x="510" y="430" text-anchor="middle" font-size="10" fill="#6b7280">工具调用</text>
  <rect x="40" y="565" width="880" height="85" rx="10" fill="#f8fafc" stroke="#e2e8f0" stroke-width="1" stroke-dasharray="4,3"/>
  <text x="52" y="583" font-size="11" fill="#94a3b8">存储层 Storage Layer</text>
  <rect x="200" y="589" width="240" height="50" rx="8" fill="#ffffff" stroke="#d1d5db" stroke-width="1.5" filter="url(#shadow)"/>
  <ellipse cx="320" cy="589" rx="120" ry="6" fill="#f1f5f9" stroke="#d1d5db" stroke-width="1"/>
  <text x="320" y="615" text-anchor="middle" font-size="14" font-weight="600" fill="#111827">Wiki 知识库</text>
  <text x="320" y="633" text-anchor="middle" font-size="11" fill="#6b7280">结构化知识</text>
  <rect x="520" y="589" width="240" height="50" rx="8" fill="#ffffff" stroke="#d1d5db" stroke-width="1.5" filter="url(#shadow)"/>
  <ellipse cx="640" cy="589" rx="120" ry="6" fill="#f1f5f9" stroke="#d1d5db" stroke-width="1"/>
  <text x="640" y="615" text-anchor="middle" font-size="14" font-weight="600" fill="#111827">文件系统</text>
  <text x="640" y="633" text-anchor="middle" font-size="11" fill="#6b7280">中间产物</text>
  <path d="M 480 540 L 480 573" stroke="#059669" stroke-width="1.5" fill="none" marker-end="url(#arrow-green)"/>
  <rect x="486" y="548" width="48" height="16" rx="3" fill="#ffffff" opacity="0.95"/>
  <text x="510" y="560" text-anchor="middle" font-size="10" fill="#6b7280">持久化</text>
  <line x1="40" y1="610" x2="70" y2="610" stroke="#2563eb" stroke-width="1.5" marker-end="url(#arrow-blue)"/>
  <text x="78" y="614" font-size="11" fill="#6b7280">命令 / 调用流</text>
  <line x1="40" y1="630" x2="70" y2="630" stroke="#059669" stroke-width="1.5" marker-end="url(#arrow-green)"/>
  <text x="78" y="634" font-size="11" fill="#6b7280">读写 / 持久化流</text>
</svg>