<svg xmlns="http://www.w3.org/2000/svg" viewBox="0 0 720 450">
<style>text{font-family:"WenQuanYi Zen Hei","Noto Sans CJK SC","PingFang SC","Microsoft YaHei",sans-serif}</style>
<rect width="720" height="450" fill="#ffffff"/>
<text x="360" y="30" text-anchor="middle" font-size="16" font-weight="700" fill="#111827">反比例函数 y = k/x 的图象</text>
<rect x="20" y="48" width="325" height="380" rx="8" fill="#f0fdf4" stroke="#d1d5db" stroke-width="1"/>
<text x="182" y="73" text-anchor="middle" font-size="14" font-weight="700" fill="#16a34a">k &gt; 0 — 第一、三象限</text>
<line x1="60" y1="230" x2="305" y2="230" stroke="#9ca3af" stroke-width="0.8"/>
<line x1="182" y1="400" x2="182" y2="60" stroke="#9ca3af" stroke-width="0.8"/>
<polygon points="305,230 300,227 300,233" fill="#9ca3af"/>
<polygon points="182,60 179,65 185,65" fill="#9ca3af"/>
<path d="M 210,62 L 210,62 L 238,146 L 266,174 L 350,202" fill="none" stroke="#16a34a" stroke-width="2.5"/>
<path d="M 14,258 L 14,258 L 98,286 L 126,314 L 154,398" fill="none" stroke="#16a34a" stroke-width="2.5"/>
<circle cx="210" cy="62" r="3" fill="#16a34a"/>
<line x1="210" y1="62" x2="210" y2="230" stroke="#16a34a" stroke-width="1" stroke-dasharray="3,3"/>
<line x1="210" y1="62" x2="182" y2="62" stroke="#16a34a" stroke-width="1" stroke-dasharray="3,3"/>
<text x="215" y="210" font-size="10" fill="#16a34a">|k|=6</text>
<rect x="370" y="48" width="325" height="380" rx="8" fill="#fef2f2" stroke="#d1d5db" stroke-width="1"/>
<text x="532" y="73" text-anchor="middle" font-size="14" font-weight="700" fill="#dc2626">k &lt; 0 — 第二、四象限</text>
<line x1="410" y1="230" x2="655" y2="230" stroke="#9ca3af" stroke-width="0.8"/>
<line x1="532" y1="400" x2="532" y2="60" stroke="#9ca3af" stroke-width="0.8"/>
<polygon points="655,230 650,227 650,233" fill="#9ca3af"/>
<polygon points="532,60 529,65 535,65" fill="#9ca3af"/>
<path d="M 504,62 L 504,62 L 476,146 L 448,174 L 364,202" fill="none" stroke="#dc2626" stroke-width="2.5"/>
<path d="M 700,258 L 700,258 L 616,286 L 588,314 L 560,398" fill="none" stroke="#dc2626" stroke-width="2.5"/>
</svg>