<?xml version="1.0" encoding="UTF-8"?>
<svg xmlns="http://www.w3.org/2000/svg" viewBox="0 0 960 680">
<defs>
  <marker id="arrowBlue" markerWidth="10" markerHeight="7" refX="9" refY="3.5" orient="auto"><polygon points="0 0, 10 3.5, 0 7" fill="#2563eb"/></marker>
  <marker id="arrowOrange" markerWidth="10" markerHeight="7" refX="9" refY="3.5" orient="auto"><polygon points="0 0, 10 3.5, 0 7" fill="#ea580c"/></marker>
  <filter id="shadow" x="-5%" y="-5%" width="115%" height="115%"><feDropShadow dx="2" dy="2" stdDeviation="3" flood-opacity="0.1"/></filter>
</defs>
<rect width="960" height="680" fill="#f8fafc"/>
<text x="480" y="36" text-anchor="middle" font-family="sans-serif" font-size="20" font-weight="bold" fill="#1e293b">端到端机器人学习概念层级架构</text>
<rect x="30" y="65" width="900" height="150" rx="10" fill="#eff6ff" stroke="#bfdbfe" stroke-width="1.5"/>
<text x="50" y="89" font-family="sans-serif" font-size="14" font-weight="bold" fill="#1e40af">具身基础模型（顶层）</text>
<text x="210" y="89" font-family="sans-serif" font-size="11" fill="#64748b">一个模型控制多种机器人、多种任务</text>
<rect x="55" y="110" width="140" height="56" rx="8" fill="white" stroke="#2563eb" stroke-width="2" filter="url(#shadow)"/>
<text x="125" y="132" text-anchor="middle" font-family="sans-serif" font-size="13" font-weight="bold" fill="#2563eb">RT-2</text>
<text x="125" y="148" text-anchor="middle" font-family="sans-serif" font-size="10" fill="#64748b">Google DM</text>
<text x="125" y="161" text-anchor="middle" font-family="sans-serif" font-size="9" fill="#94a3b8">55B VLA</text>
<rect x="215" y="110" width="140" height="56" rx="8" fill="white" stroke="#7c3aed" stroke-width="2" filter="url(#shadow)"/>
<text x="285" y="132" text-anchor="middle" font-family="sans-serif" font-size="13" font-weight="bold" fill="#7c3aed">π₀</text>
<text x="285" y="148" text-anchor="middle" font-family="sans-serif" font-size="10" fill="#64748b">Physical Intell.</text>
<text x="285" y="161" text-anchor="middle" font-family="sans-serif" font-size="9" fill="#94a3b8">3B 通用策略</text>
<rect x="375" y="110" width="140" height="56" rx="8" fill="white" stroke="#0891b2" stroke-width="2" filter="url(#shadow)"/>
<text x="445" y="132" text-anchor="middle" font-family="sans-serif" font-size="13" font-weight="bold" fill="#0891b2">WAM</text>
<text x="445" y="148" text-anchor="middle" font-family="sans-serif" font-size="10" fill="#64748b">NVIDIA GEAR</text>
<text x="445" y="161" text-anchor="middle" font-family="sans-serif" font-size="9" fill="#94a3b8">视频+动作预测</text>
<rect x="535" y="110" width="140" height="56" rx="8" fill="white" stroke="#2563eb" stroke-width="2" filter="url(#shadow)"/>
<text x="605" y="132" text-anchor="middle" font-family="sans-serif" font-size="13" font-weight="bold" fill="#2563eb">OpenVLA</text>
<text x="605" y="148" text-anchor="middle" font-family="sans-serif" font-size="10" fill="#64748b">Stanford</text>
<text x="605" y="161" text-anchor="middle" font-family="sans-serif" font-size="9" fill="#94a3b8">7B 开放权重</text>
<rect x="695" y="110" width="140" height="56" rx="8" fill="white" stroke="#7c3aed" stroke-width="2" filter="url(#shadow)"/>
<text x="765" y="132" text-anchor="middle" font-family="sans-serif" font-size="13" font-weight="bold" fill="#7c3aed">Octo</text>
<text x="765" y="148" text-anchor="middle" font-family="sans-serif" font-size="10" fill="#64748b">UC Berkeley</text>
<text x="765" y="161" text-anchor="middle" font-family="sans-serif" font-size="9" fill="#94a3b8">通用操作</text>
<rect x="30" y="240" width="900" height="150" rx="10" fill="#f5f3ff" stroke="#ddd6fe" stroke-width="1.5"/>
<text x="50" y="264" font-family="sans-serif" font-size="14" font-weight="bold" fill="#5b21b6">学习范式（中层）</text>
<text x="180" y="264" font-family="sans-serif" font-size="11" fill="#64748b">端到端学习的具体表达形式</text>
<rect x="55" y="285" width="200" height="70" rx="8" fill="white" stroke="#8b5cf6" stroke-width="2" filter="url(#shadow)"/>
<text x="69" y="305" font-family="sans-serif" font-size="13" font-weight="bold" fill="#8b5cf6">VLA</text>
<text x="69" y="323" font-family="monospace" font-size="11" fill="#475569">obs→act</text>
<text x="69" y="341" font-family="sans-serif" font-size="10" fill="#94a3b8">视觉-语言-行动直接映射</text>
<rect x="300" y="285" width="260" height="70" rx="8" fill="white" stroke="#7c3aed" stroke-width="2" filter="url(#shadow)"/>
<text x="314" y="305" font-family="sans-serif" font-size="13" font-weight="bold" fill="#7c3aed">WAM</text>
<text x="314" y="323" font-family="monospace" font-size="11" fill="#475569">obs→act+想像未来</text>
<text x="314" y="341" font-family="sans-serif" font-size="10" fill="#94a3b8">世界+动作统一预测</text>
<rect x="605" y="285" width="260" height="70" rx="8" fill="white" stroke="#8b5cf6" stroke-width="2" filter="url(#shadow)"/>
<text x="619" y="305" font-family="sans-serif" font-size="13" font-weight="bold" fill="#8b5cf6">世界模型 + RL</text>
<text x="619" y="323" font-family="monospace" font-size="11" fill="#475569">想象→试错→学习</text>
<text x="619" y="341" font-family="sans-serif" font-size="10" fill="#94a3b8">Dreamer系列 在梦中训练</text>
<rect x="30" y="415" width="900" height="150" rx="10" fill="#ecfdf5" stroke="#a7f3d0" stroke-width="1.5"/>
<text x="50" y="439" font-family="sans-serif" font-size="14" font-weight="bold" fill="#065f46">训练信号（底层）</text>
<text x="180" y="439" font-family="sans-serif" font-size="11" fill="#64748b">从易到难、从虚拟到真实的数据来源</text>
<rect x="55" y="460" width="180" height="70" rx="8" fill="white" stroke="#10b981" stroke-width="2" filter="url(#shadow)"/>
<text x="69" y="480" font-family="sans-serif" font-size="13" font-weight="bold" fill="#059669">遥操作示范</text>
<text x="69" y="500" font-family="sans-serif" font-size="11" fill="#475569">(o,a) 行为克隆</text>
<text x="69" y="518" font-family="sans-serif" font-size="10" fill="#94a3b8">专家数据 成本高</text>
<rect x="260" y="460" width="180" height="70" rx="8" fill="white" stroke="#10b981" stroke-width="2" filter="url(#shadow)"/>
<text x="274" y="480" font-family="sans-serif" font-size="13" font-weight="bold" fill="#059669">自监督视频</text>
<text x="274" y="500" font-family="sans-serif" font-size="11" fill="#475569">视频结构与隐动作</text>
<text x="274" y="518" font-family="sans-serif" font-size="10" fill="#94a3b8">数据丰富 信息稀疏</text>
<rect x="465" y="460" width="180" height="70" rx="8" fill="white" stroke="#10b981" stroke-width="2" filter="url(#shadow)"/>
<text x="479" y="480" font-family="sans-serif" font-size="13" font-weight="bold" fill="#059669">仿真 RL</text>
<text x="479" y="500" font-family="sans-serif" font-size="11" fill="#475569">环境奖励 PPO/SAC</text>
<text x="479" y="518" font-family="sans-serif" font-size="10" fill="#94a3b8">低成本 域差距</text>
<rect x="670" y="460" width="180" height="70" rx="8" fill="white" stroke="#10b981" stroke-width="2" filter="url(#shadow)"/>
<text x="684" y="480" font-family="sans-serif" font-size="13" font-weight="bold" fill="#059669">真机自主交互</text>
<text x="684" y="500" font-family="sans-serif" font-size="11" fill="#475569">直接环境反馈</text>
<text x="684" y="518" font-family="sans-serif" font-size="10" fill="#94a3b8">最昂贵 最保真</text>
<line x1="125" y1="166" x2="155" y2="281" stroke="#2563eb" stroke-width="1.5" stroke-dasharray="6,3" marker-end="url(#arrowBlue)"/>
<line x1="445" y1="166" x2="430" y2="281" stroke="#0891b2" stroke-width="1.5" stroke-dasharray="6,3" marker-end="url(#arrowBlue)"/>
<line x1="605" y1="166" x2="735" y2="281" stroke="#2563eb" stroke-width="1.5" stroke-dasharray="6,3" marker-end="url(#arrowBlue)"/>
<line x1="285" y1="166" x2="355" y2="281" stroke="#7c3aed" stroke-width="1.5" stroke-dasharray="6,3" marker-end="url(#arrowBlue)"/>
<line x1="155" y1="355" x2="145" y2="456" stroke="#ea580c" stroke-width="1.5" marker-end="url(#arrowOrange)"/>
<rect x="80" y="400" width="130" height="16" rx="3" fill="#f8fafc" opacity="0.95"/>
<text x="145" y="412" text-anchor="middle" font-family="sans-serif" font-size="9" fill="#ea580c">行为克隆驱动</text>
<line x1="430" y1="355" x2="350" y2="456" stroke="#ea580c" stroke-width="1.5" marker-end="url(#arrowOrange)"/>
<rect x="310" y="400" width="80" height="16" rx="3" fill="#f8fafc" opacity="0.95"/>
<text x="350" y="412" text-anchor="middle" font-family="sans-serif" font-size="9" fill="#ea580c">自监督驱动</text>
<line x1="735" y1="355" x2="555" y2="456" stroke="#ea580c" stroke-width="1.5" marker-end="url(#arrowOrange)"/>
<rect x="495" y="400" width="120" height="16" rx="3" fill="#f8fafc" opacity="0.95"/>
<text x="555" y="412" text-anchor="middle" font-family="sans-serif" font-size="9" fill="#ea580c">想象+仿真训练</text>
<line x1="735" y1="355" x2="760" y2="456" stroke="#ea580c" stroke-width="1.5" stroke-dasharray="4,2" marker-end="url(#arrowOrange)"/>
<rect x="700" y="405" width="120" height="16" rx="3" fill="#f8fafc" opacity="0.95"/>
<text x="760" y="417" text-anchor="middle" font-family="sans-serif" font-size="9" fill="#ea580c">Sim-to-Real迁移</text>
<rect x="30" y="615" width="900" height="50" rx="8" fill="#f1f5f9" stroke="#e2e8f0" stroke-width="1"/>
<text x="50" y="635" font-family="sans-serif" font-size="12" font-weight="bold" fill="#475569">图例</text>
<line x1="110" y1="631" x2="160" y2="631" stroke="#2563eb" stroke-width="1.5" stroke-dasharray="6,3" marker-end="url(#arrowBlue)"/>
<text x="170" y="635" font-family="sans-serif" font-size="11" fill="#475569">技术继承关系</text>
<line x1="320" y1="631" x2="370" y2="631" stroke="#ea580c" stroke-width="1.5" marker-end="url(#arrowOrange)"/>
<text x="380" y="635" font-family="sans-serif" font-size="11" fill="#475569">数据/训练驱动</text>
<line x1="530" y1="631" x2="580" y2="631" stroke="#ea580c" stroke-width="1.5" stroke-dasharray="4,2" marker-end="url(#arrowOrange)"/>
<text x="590" y="635" font-family="sans-serif" font-size="11" fill="#475569">间接迁移路径</text>
<text x="920" y="653" text-anchor="end" font-family="sans-serif" font-size="10" fill="#94a3b8">图1：概念层级架构</text>
</svg>