<?xml version="1.0" encoding="UTF-8"?>
<svg xmlns="http://www.w3.org/2000/svg" viewBox="0 0 800 700">
<rect width="800" height="700" fill="#1a1a2e"/>
<text x="400" y="35" text-anchor="middle" fill="#e0e0e0" font-family="sans-serif" font-size="22" font-weight="bold">集合运算文氏图</text>
<rect x="80" y="100" width="300" height="280" rx="8" fill="#16213e" stroke="#333" stroke-width="1"/>
<text x="230" y="125" text-anchor="middle" fill="#64ffda" font-family="sans-serif" font-size="16" font-weight="bold">并集</text>
<text x="230" y="148" text-anchor="middle" fill="#aaa" font-family="sans-serif" font-size="13" font-style="italic">A ∪ B</text>
<circle cx="190" cy="275" r="65" fill="#ff6b6b22" stroke="#ff6b6b" stroke-width="2"/>
<circle cx="270" cy="275" r="65" fill="#4ecdc422" stroke="#4ecdc4" stroke-width="2"/>
<text x="155" y="240" text-anchor="middle" fill="#ff6b6b" font-family="sans-serif" font-size="14">A</text>
<text x="305" y="240" text-anchor="middle" fill="#4ecdc4" font-family="sans-serif" font-size="14">B</text>
<rect x="420" y="100" width="300" height="280" rx="8" fill="#16213e" stroke="#333" stroke-width="1"/>
<text x="570" y="125" text-anchor="middle" fill="#64ffda" font-family="sans-serif" font-size="16" font-weight="bold">交集</text>
<text x="570" y="148" text-anchor="middle" fill="#aaa" font-family="sans-serif" font-size="13" font-style="italic">A ∩ B</text>
<circle cx="530" cy="275" r="65" fill="none" stroke="#ff6b6b" stroke-width="2"/>
<circle cx="610" cy="275" r="65" fill="none" stroke="#4ecdc4" stroke-width="2"/>
<ellipse cx="570.0" cy="275" rx="35" ry="50" fill="#f0a50044" stroke="none"/>
<text x="495" y="240" text-anchor="middle" fill="#ff6b6b" font-family="sans-serif" font-size="14">A</text>
<text x="645" y="240" text-anchor="middle" fill="#4ecdc4" font-family="sans-serif" font-size="14">B</text>
<rect x="80" y="420" width="300" height="280" rx="8" fill="#16213e" stroke="#333" stroke-width="1"/>
<text x="230" y="445" text-anchor="middle" fill="#64ffda" font-family="sans-serif" font-size="16" font-weight="bold">差集</text>
<text x="230" y="468" text-anchor="middle" fill="#aaa" font-family="sans-serif" font-size="13" font-style="italic">A − B</text>
<circle cx="190" cy="595" r="65" fill="#ff6b6b22" stroke="#ff6b6b" stroke-width="2"/>
<circle cx="270" cy="595" r="65" fill="#1a1a2e" stroke="#4ecdc4" stroke-width="2"/>
<circle cx="190" cy="595" r="65" fill="none" stroke="#ff6b6b" stroke-width="2"/>
<text x="150" y="560" text-anchor="middle" fill="#ff6b6b" font-family="sans-serif" font-size="14">A</text>
<text x="305" y="560" text-anchor="middle" fill="#4ecdc4" font-family="sans-serif" font-size="14">B</text>
<rect x="420" y="420" width="300" height="280" rx="8" fill="#16213e" stroke="#333" stroke-width="1"/>
<text x="570" y="445" text-anchor="middle" fill="#64ffda" font-family="sans-serif" font-size="16" font-weight="bold">补集</text>
<text x="570" y="468" text-anchor="middle" fill="#aaa" font-family="sans-serif" font-size="13" font-style="italic">Ā</text>
<rect x="480" y="500" width="180" height="180" rx="4" fill="#2a2a4a" stroke="#888" stroke-width="1.5" stroke-dasharray="6,3"/>
<text x="485" y="515" fill="#888" font-family="sans-serif" font-size="12">全集 U</text>
<circle cx="570" cy="585" r="50" fill="#ff6b6b44" stroke="#ff6b6b" stroke-width="2"/>
<text x="570" y="590" text-anchor="middle" fill="#ff6b6b" font-family="sans-serif" font-size="14">A</text>
<text x="635" y="540" fill="#888" font-family="sans-serif" font-size="12">Ā</text>
<line x1="642" y1="545" x2="645" y2="535" stroke="#888" stroke-width="1" marker-end="url(#arrow)"/>
<rect x="160" y="620" width="480" height="45" rx="6" fill="#16213e" stroke="#333" stroke-width="1"/>
<circle cx="200" cy="642" r="8" fill="#ff6b6b44" stroke="#ff6b6b" stroke-width="1.5"/>
<text x="215" y="646" fill="#ccc" font-family="sans-serif" font-size="13">集合 A</text>
<circle cx="330" cy="642" r="8" fill="#4ecdc444" stroke="#4ecdc4" stroke-width="1.5"/>
<text x="345" y="646" fill="#ccc" font-family="sans-serif" font-size="13">集合 B</text>
<rect x="430" y="634" width="16" height="16" fill="#f0a50044" rx="2"/>
<text x="452" y="646" fill="#ccc" font-family="sans-serif" font-size="13">交集</text>
<rect x="500" y="634" width="16" height="16" fill="#16213e" rx="2" stroke="#ff6b6b" stroke-width="1"/>
<text x="522" y="646" fill="#ccc" font-family="sans-serif" font-size="13">差集</text>
</svg>