<?xml version="1.0" encoding="UTF-8"?>
<svg xmlns="http://www.w3.org/2000/svg" viewBox="0 0 800 700">
<rect width="800" height="700" fill="#1a1a2e"/>
<text x="400" y="35" text-anchor="middle" fill="#e0e0e0" font-family="sans-serif" font-size="22" font-weight="bold">图论·图、生成树、BST</text>
<rect x="20" y="60" width="360" height="290" rx="8" fill="#16213e" stroke="#333" stroke-width="1"/>
<text x="200" y="85" text-anchor="middle" fill="#64ffda" font-family="sans-serif" font-size="16" font-weight="bold">一般图 G = (V, E)</text>
<line x1="200" y1="160" x2="266" y2="208" stroke="#555" stroke-width="1.5"/>
<line x1="266" y1="208" x2="241" y2="286" stroke="#555" stroke-width="1.5"/>
<line x1="241" y1="286" x2="158" y2="286" stroke="#555" stroke-width="1.5"/>
<line x1="158" y1="286" x2="133" y2="208" stroke="#555" stroke-width="1.5"/>
<line x1="133" y1="208" x2="200" y2="160" stroke="#555" stroke-width="1.5"/>
<line x1="200" y1="160" x2="200" y2="230" stroke="#555" stroke-width="1.5"/>
<line x1="266" y1="208" x2="200" y2="230" stroke="#555" stroke-width="1.5"/>
<line x1="241" y1="286" x2="200" y2="230" stroke="#555" stroke-width="1.5"/>
<line x1="158" y1="286" x2="200" y2="230" stroke="#555" stroke-width="1.5"/>
<circle cx="227" cy="192" r="10" fill="#1a1a2e"/>
<text x="227" y="196" text-anchor="middle" fill="#aaa" font-family="sans-serif" font-size="11">3</text>
<circle cx="244" cy="244" r="10" fill="#1a1a2e"/>
<text x="244" y="248" text-anchor="middle" fill="#aaa" font-family="sans-serif" font-size="11">2</text>
<circle cx="200" cy="276" r="10" fill="#1a1a2e"/>
<text x="200" y="280" text-anchor="middle" fill="#aaa" font-family="sans-serif" font-size="11">1</text>
<circle cx="155" cy="244" r="10" fill="#1a1a2e"/>
<text x="155" y="248" text-anchor="middle" fill="#aaa" font-family="sans-serif" font-size="11">4</text>
<circle cx="172" cy="192" r="10" fill="#1a1a2e"/>
<text x="172" y="196" text-anchor="middle" fill="#aaa" font-family="sans-serif" font-size="11">5</text>
<circle cx="190" cy="195" r="10" fill="#1a1a2e"/>
<text x="190" y="199" text-anchor="middle" fill="#aaa" font-family="sans-serif" font-size="11">2</text>
<circle cx="230" cy="209" r="10" fill="#1a1a2e"/>
<text x="230" y="213" text-anchor="middle" fill="#aaa" font-family="sans-serif" font-size="11">3</text>
<circle cx="228" cy="252" r="10" fill="#1a1a2e"/>
<text x="228" y="256" text-anchor="middle" fill="#aaa" font-family="sans-serif" font-size="11">1</text>
<circle cx="187" cy="264" r="10" fill="#1a1a2e"/>
<text x="187" y="268" text-anchor="middle" fill="#aaa" font-family="sans-serif" font-size="11">2</text>
<circle cx="200" cy="160" r="12" fill="#ff6b6b" stroke="#ff6b6b" stroke-width="2" opacity="0.8"/>
<text x="200" y="164" text-anchor="middle" fill="#fff" font-family="sans-serif" font-size="12" font-weight="bold">1</text>
<circle cx="266" cy="208" r="12" fill="#ff6b6b" stroke="#ff6b6b" stroke-width="2" opacity="0.8"/>
<text x="266" y="212" text-anchor="middle" fill="#fff" font-family="sans-serif" font-size="12" font-weight="bold">2</text>
<circle cx="241" cy="286" r="12" fill="#ff6b6b" stroke="#ff6b6b" stroke-width="2" opacity="0.8"/>
<text x="241" y="290" text-anchor="middle" fill="#fff" font-family="sans-serif" font-size="12" font-weight="bold">3</text>
<circle cx="158" cy="286" r="12" fill="#ff6b6b" stroke="#ff6b6b" stroke-width="2" opacity="0.8"/>
<text x="158" y="290" text-anchor="middle" fill="#fff" font-family="sans-serif" font-size="12" font-weight="bold">4</text>
<circle cx="133" cy="208" r="12" fill="#ff6b6b" stroke="#ff6b6b" stroke-width="2" opacity="0.8"/>
<text x="133" y="212" text-anchor="middle" fill="#fff" font-family="sans-serif" font-size="12" font-weight="bold">5</text>
<circle cx="200" cy="230" r="12" fill="#ff6b6b" stroke="#ff6b6b" stroke-width="2" opacity="0.8"/>
<text x="200" y="234" text-anchor="middle" fill="#fff" font-family="sans-serif" font-size="12" font-weight="bold">0</text>
<text x="200" y="325" text-anchor="middle" fill="#888" font-family="sans-serif" font-size="11">握手定理: ∑deg(v) = 18 = 2×9条边</text>
<rect x="410" y="60" width="370" height="290" rx="8" fill="#16213e" stroke="#333" stroke-width="1"/>
<text x="595" y="85" text-anchor="middle" fill="#64ffda" font-family="sans-serif" font-size="16" font-weight="bold">最小生成树 (MST)</text>
<line x1="636" y1="286" x2="553" y2="286" stroke="#4ecdc4" stroke-width="2.5"/>
<circle cx="595" cy="276" r="10" fill="#1a1a2e"/>
<text x="595" y="280" text-anchor="middle" fill="#4ecdc4" font-family="sans-serif" font-size="11">1</text>
<line x1="595" y1="160" x2="595" y2="230" stroke="#4ecdc4" stroke-width="2.5"/>
<circle cx="585" cy="195" r="10" fill="#1a1a2e"/>
<text x="585" y="199" text-anchor="middle" fill="#4ecdc4" font-family="sans-serif" font-size="11">2</text>
<line x1="661" y1="208" x2="636" y2="286" stroke="#4ecdc4" stroke-width="2.5"/>
<circle cx="639" cy="244" r="10" fill="#1a1a2e"/>
<text x="639" y="248" text-anchor="middle" fill="#4ecdc4" font-family="sans-serif" font-size="11">2</text>
<line x1="661" y1="208" x2="595" y2="230" stroke="#4ecdc4" stroke-width="2.5"/>
<circle cx="625" cy="209" r="10" fill="#1a1a2e"/>
<text x="625" y="213" text-anchor="middle" fill="#4ecdc4" font-family="sans-serif" font-size="11">3</text>
<line x1="528" y1="208" x2="553" y2="286" stroke="#4ecdc4" stroke-width="2.5"/>
<circle cx="531" cy="250" r="10" fill="#1a1a2e"/>
<text x="531" y="254" text-anchor="middle" fill="#4ecdc4" font-family="sans-serif" font-size="11">4</text>
<line x1="528" y1="208" x2="595" y2="160" stroke="#4ecdc4" stroke-width="2.5"/>
<circle cx="567" cy="192" r="10" fill="#1a1a2e"/>
<text x="567" y="196" text-anchor="middle" fill="#4ecdc4" font-family="sans-serif" font-size="11">5</text>
<circle cx="595" cy="160" r="12" fill="#ff6b6b" stroke="#ff6b6b" stroke-width="2" opacity="0.8"/>
<text x="595" y="164" text-anchor="middle" fill="#fff" font-family="sans-serif" font-size="12" font-weight="bold">1</text>
<circle cx="661" cy="208" r="12" fill="#ff6b6b" stroke="#ff6b6b" stroke-width="2" opacity="0.8"/>
<text x="661" y="212" text-anchor="middle" fill="#fff" font-family="sans-serif" font-size="12" font-weight="bold">2</text>
<circle cx="636" cy="286" r="12" fill="#ff6b6b" stroke="#ff6b6b" stroke-width="2" opacity="0.8"/>
<text x="636" y="290" text-anchor="middle" fill="#fff" font-family="sans-serif" font-size="12" font-weight="bold">3</text>
<circle cx="553" cy="286" r="12" fill="#ff6b6b" stroke="#ff6b6b" stroke-width="2" opacity="0.8"/>
<text x="553" y="290" text-anchor="middle" fill="#fff" font-family="sans-serif" font-size="12" font-weight="bold">4</text>
<circle cx="528" cy="208" r="12" fill="#ff6b6b" stroke="#ff6b6b" stroke-width="2" opacity="0.8"/>
<text x="528" y="212" text-anchor="middle" fill="#fff" font-family="sans-serif" font-size="12" font-weight="bold">5</text>
<circle cx="595" cy="230" r="12" fill="#ff6b6b" stroke="#ff6b6b" stroke-width="2" opacity="0.8"/>
<text x="595" y="234" text-anchor="middle" fill="#fff" font-family="sans-serif" font-size="12" font-weight="bold">0</text>
<text x="595" y="325" text-anchor="middle" fill="#888" font-family="sans-serif" font-size="11">总权 = 1+2+2+3+4 = 12 （最小）</text>
<rect x="20" y="370" width="760" height="200" rx="8" fill="#16213e" stroke="#333" stroke-width="1"/>
<text x="400" y="395" text-anchor="middle" fill="#64ffda" font-family="sans-serif" font-size="16" font-weight="bold">二叉搜索树 (BST) — 对称遍历: 1→3→5→8→10→15↔20</text>
<line x1="400" y1="442" x2="250" y2="468" stroke="#f0a500" stroke-width="1.5"/>
<line x1="400" y1="442" x2="550" y2="468" stroke="#f0a500" stroke-width="1.5"/>
<line x1="250" y1="492" x2="150" y2="518" stroke="#f0a500" stroke-width="1.5"/>
<line x1="250" y1="492" x2="350" y2="518" stroke="#f0a500" stroke-width="1.5"/>
<line x1="550" y1="492" x2="450" y2="518" stroke="#f0a500" stroke-width="1.5"/>
<line x1="550" y1="492" x2="650" y2="518" stroke="#f0a500" stroke-width="1.5"/>
<circle cx="400" cy="430" r="14" fill="#f0a500" stroke="#f0a500" stroke-width="2" opacity="0.9"/>
<text x="400" y="434" text-anchor="middle" fill="#1a1a2e" font-family="sans-serif" font-size="13" font-weight="bold">8</text>
<circle cx="250" cy="480" r="14" fill="#f0a500" stroke="#f0a500" stroke-width="2" opacity="0.9"/>
<text x="250" y="484" text-anchor="middle" fill="#1a1a2e" font-family="sans-serif" font-size="13" font-weight="bold">3</text>
<circle cx="550" cy="480" r="14" fill="#f0a500" stroke="#f0a500" stroke-width="2" opacity="0.9"/>
<text x="550" y="484" text-anchor="middle" fill="#1a1a2e" font-family="sans-serif" font-size="13" font-weight="bold">15</text>
<circle cx="150" cy="530" r="14" fill="#f0a500" stroke="#f0a500" stroke-width="2" opacity="0.9"/>
<text x="150" y="534" text-anchor="middle" fill="#1a1a2e" font-family="sans-serif" font-size="13" font-weight="bold">1</text>
<circle cx="350" cy="530" r="14" fill="#f0a500" stroke="#f0a500" stroke-width="2" opacity="0.9"/>
<text x="350" y="534" text-anchor="middle" fill="#1a1a2e" font-family="sans-serif" font-size="13" font-weight="bold">5</text>
<circle cx="450" cy="530" r="14" fill="#f0a500" stroke="#f0a500" stroke-width="2" opacity="0.9"/>
<text x="450" y="534" text-anchor="middle" fill="#1a1a2e" font-family="sans-serif" font-size="13" font-weight="bold">10</text>
<circle cx="650" cy="530" r="14" fill="#f0a500" stroke="#f0a500" stroke-width="2" opacity="0.9"/>
<text x="650" y="534" text-anchor="middle" fill="#1a1a2e" font-family="sans-serif" font-size="13" font-weight="bold">20</text>
<text x="400" y="560" text-anchor="middle" fill="#888" font-family="sans-serif" font-size="12">左子树 &lt; 根 &lt; 右子树 | 查找平均 O(log n) | 中序遍历得到有序序列</text>
<text x="400" y="680" text-anchor="middle" fill="#666" font-family="sans-serif" font-size="11" font-style="italic">Kruskal 算法: 按边权升序加入，不形成回路则选择</text>
</svg>