<?xml version="1.0" encoding="UTF-8"?>
<svg xmlns="http://www.w3.org/2000/svg" viewBox="0 0 850 380" width="850" height="380">
<rect width="850" height="380" fill="#0d1117"/>
<text x="425" y="30" text-anchor="middle" fill="#e6edf3" font-size="16" font-weight="bold" font-family="sans-serif">五类方案 TRL 成熟度对比</text>
<text x="425" y="48" text-anchor="middle" fill="#8b949e" font-size="10" font-family="sans-serif">TRL 1-3 = 基础研究 · TRL 4-6 = 技术验证 · TRL 7-9 = 工程化/产品化</text>
<rect x="180.0" y="68" width="160.0" height="240" fill="#1a1a2e" rx="2"/>
<text x="260.0" y="82" text-anchor="middle" fill="#8b949e" font-size="9.5" font-family="sans-serif" opacity="0.8">基础研究</text>
<rect x="420.0" y="68" width="160.0" height="240" fill="#1a2e1a" rx="2"/>
<text x="500.0" y="82" text-anchor="middle" fill="#3fb950" font-size="9.5" font-family="sans-serif" opacity="0.8">技术验证</text>
<rect x="660.0" y="68" width="160.0" height="240" fill="#2e1a1a" rx="2"/>
<text x="740.0" y="82" text-anchor="middle" fill="#f0883e" font-size="9.5" font-family="sans-serif" opacity="0.8">产品化</text>
<line x1="180.0" y1="300" x2="180.0" y2="308" stroke="#484f58" stroke-width="0.8"/>
<text x="180.0" y="320" text-anchor="middle" fill="#8b949e" font-size="9" font-family="sans-serif">TRL 1</text>
<line x1="260.0" y1="300" x2="260.0" y2="308" stroke="#484f58" stroke-width="0.8"/>
<text x="260.0" y="320" text-anchor="middle" fill="#8b949e" font-size="9" font-family="sans-serif">TRL 2</text>
<line x1="340.0" y1="300" x2="340.0" y2="308" stroke="#484f58" stroke-width="0.8"/>
<text x="340.0" y="320" text-anchor="middle" fill="#8b949e" font-size="9" font-family="sans-serif">TRL 3</text>
<line x1="420.0" y1="300" x2="420.0" y2="308" stroke="#484f58" stroke-width="0.8"/>
<text x="420.0" y="320" text-anchor="middle" fill="#8b949e" font-size="9" font-family="sans-serif">TRL 4</text>
<line x1="500.0" y1="300" x2="500.0" y2="308" stroke="#484f58" stroke-width="0.8"/>
<text x="500.0" y="320" text-anchor="middle" fill="#8b949e" font-size="9" font-family="sans-serif">TRL 5</text>
<line x1="580.0" y1="300" x2="580.0" y2="308" stroke="#484f58" stroke-width="0.8"/>
<text x="580.0" y="320" text-anchor="middle" fill="#8b949e" font-size="9" font-family="sans-serif">TRL 6</text>
<line x1="660.0" y1="300" x2="660.0" y2="308" stroke="#484f58" stroke-width="0.8"/>
<text x="660.0" y="320" text-anchor="middle" fill="#8b949e" font-size="9" font-family="sans-serif">TRL 7</text>
<line x1="740.0" y1="300" x2="740.0" y2="308" stroke="#484f58" stroke-width="0.8"/>
<text x="740.0" y="320" text-anchor="middle" fill="#8b949e" font-size="9" font-family="sans-serif">TRL 8</text>
<line x1="820.0" y1="300" x2="820.0" y2="308" stroke="#484f58" stroke-width="0.8"/>
<text x="820.0" y="320" text-anchor="middle" fill="#8b949e" font-size="9" font-family="sans-serif">TRL 9</text>
<text x="170" y="118.0" text-anchor="end" fill="#e6edf3" font-size="11" font-weight="bold" font-family="sans-serif">手工建模</text>
<rect x="740.0" y="100" width="80.0" height="28" rx="5" fill="#1f6feb55" stroke="#58a6ff" stroke-width="1.5"/>
<text x="830.0" y="118.0" fill="#58a6ff" font-size="10" font-weight="bold" font-family="sans-serif">TRL 8-9</text>
<text x="170" y="164.0" text-anchor="end" fill="#e6edf3" font-size="11" font-weight="bold" font-family="sans-serif">摄影测量</text>
<rect x="660.0" y="146" width="80.0" height="28" rx="5" fill="#2ea04355" stroke="#3fb950" stroke-width="1.5"/>
<text x="750.0" y="164.0" fill="#3fb950" font-size="10" font-weight="bold" font-family="sans-serif">TRL 7-8</text>
<text x="170" y="210.0" text-anchor="end" fill="#e6edf3" font-size="11" font-weight="bold" font-family="sans-serif">3DGS</text>
<rect x="340.0" y="192" width="160.0" height="28" rx="5" fill="#8250df55" stroke="#d2a8ff" stroke-width="1.5"/>
<text x="510.0" y="210.0" fill="#d2a8ff" font-size="10" font-weight="bold" font-family="sans-serif">TRL 3-5</text>
<text x="170" y="256.0" text-anchor="end" fill="#e6edf3" font-size="11" font-weight="bold" font-family="sans-serif">AI 生成</text>
<rect x="260.0" y="238" width="160.0" height="28" rx="5" fill="#d4621155" stroke="#f0883e" stroke-width="1.5"/>
<text x="430.0" y="256.0" fill="#f0883e" font-size="10" font-weight="bold" font-family="sans-serif">TRL 2-4</text>
<text x="170" y="302.0" text-anchor="end" fill="#e6edf3" font-size="11" font-weight="bold" font-family="sans-serif">自带资产</text>
<rect x="740.0" y="284" width="80.0" height="28" rx="5" fill="#d2992255" stroke="#f0c000" stroke-width="1.5"/>
<text x="830.0" y="302.0" fill="#f0c000" font-size="10" font-weight="bold" font-family="sans-serif">TRL 8-9</text>
<text x="425" y="346" text-anchor="middle" fill="#8b949e" font-size="9" font-family="sans-serif">成熟度依据：工业部署案例数 + 社区规模 + 实机验证报告 + 工具链完整性（详见文章5-6节）</text>
</svg>