<svg xmlns="http://www.w3.org/2000/svg" viewBox="0 0 800 450" width="800" height="450">
<style>text{font-family:'WenQuanYi Zen Hei','Droid Sans Fallback','Noto Sans CJK SC',sans-serif;}</style>
<rect width="800" height="450" fill="#ffffff"/>
<text x="400" y="30" text-anchor="middle" fill="#111827" font-size="16" font-weight="600">马赫数分区·可压缩性标尺</text>
<line x1="50" y1="220" x2="750" y2="220" stroke="#d1d5db" stroke-width="3"/>
<text x="36" y="224" text-anchor="end" fill="#6b7280" font-size="12">Ma=0</text>
<line x1="100" y1="215" x2="100" y2="225" stroke="#d1d5db" stroke-width="2"/><text x="100" y="240" text-anchor="middle" fill="#6b7280" font-size="11">0.3</text>
<line x1="240" y1="215" x2="240" y2="225" stroke="#d1d5db" stroke-width="2"/><text x="240" y="240" text-anchor="middle" fill="#6b7280" font-size="11">0.8</text>
<line x1="370" y1="215" x2="370" y2="225" stroke="#d1d5db" stroke-width="2"/><text x="370" y="240" text-anchor="middle" fill="#6b7280" font-size="11">1.2</text>
<line x1="520" y1="215" x2="520" y2="225" stroke="#d1d5db" stroke-width="2"/><text x="520" y="240" text-anchor="middle" fill="#6b7280" font-size="11">5.0</text>
<rect x="50" y="180" width="190" height="35" rx="6" fill="#dcfce7" stroke="#4ade80" stroke-width="1"/>
<text x="145" y="203" text-anchor="middle" fill="#16a34a" font-size="13" font-weight="600">不可压缩</text>
<rect x="240" y="180" width="130" height="35" rx="6" fill="#fef3c7" stroke="#fbbf24" stroke-width="1"/>
<text x="305" y="203" text-anchor="middle" fill="#d97706" font-size="13" font-weight="600">亚声速</text>
<rect x="370" y="180" width="150" height="35" rx="6" fill="#fde68a" stroke="#f59e0b" stroke-width="1.5"/>
<text x="445" y="203" text-anchor="middle" fill="#b45309" font-size="12" font-weight="600">跨声速</text>
<rect x="520" y="180" width="120" height="35" rx="6" fill="#fef2f2" stroke="#f87171" stroke-width="1"/>
<text x="580" y="203" text-anchor="middle" fill="#dc2626" font-size="13" font-weight="600">超声速</text>
<rect x="640" y="180" width="110" height="35" rx="6" fill="#fee2e2" stroke="#ef4444" stroke-width="1.5"/>
<text x="695" y="203" text-anchor="middle" fill="#b91c1c" font-size="12" font-weight="600">高超声速</text>
<rect x="50" y="100" width="190" height="60" rx="6" fill="#f0fdf4" stroke="#86efac" stroke-width="1"/>
<text x="145" y="120" text-anchor="middle" fill="#15803d" font-size="11" font-weight="600">ρ≈const</text>
<text x="145" y="140" text-anchor="middle" fill="#6b7280" font-size="10">Δρ/ρ 5%</text>
<rect x="240" y="100" width="130" height="60" rx="6" fill="#fff7ed" stroke="#fdba74" stroke-width="1"/>
<text x="305" y="120" text-anchor="middle" fill="#c2410c" font-size="11" font-weight="600">PG修正</text>
<text x="305" y="140" text-anchor="middle" fill="#6b7280" font-size="10">考虑可压缩</text>
<rect x="520" y="100" width="230" height="60" rx="6" fill="#fef2f2" stroke="#fca5a5" stroke-width="1"/>
<text x="635" y="120" text-anchor="middle" fill="#dc2626" font-size="11" font-weight="600">激波+波阻</text>
<text x="635" y="140" text-anchor="middle" fill="#6b7280" font-size="10">Cl下降、Cd激增</text>
<rect x="180" y="280" width="90" height="40" rx="6" fill="#f9fafb" stroke="#e5e7eb" stroke-width="1"/>
<text x="225" y="296" text-anchor="middle" fill="#374151" font-size="11">四旋翼</text><text x="225" y="312" text-anchor="middle" fill="#9ca3af" font-size="10">桨尖0.27</text>
<rect x="290" y="280" width="110" height="40" rx="6" fill="#f9fafb" stroke="#e5e7eb" stroke-width="1"/>
<text x="345" y="296" text-anchor="middle" fill="#374151" font-size="11">高速截击机</text><text x="345" y="312" text-anchor="middle" fill="#9ca3af" font-size="10">桨尖0.56</text>
<rect x="420" y="280" width="110" height="40" rx="6" fill="#f9fafb" stroke="#e5e7eb" stroke-width="1"/>
<text x="475" y="296" text-anchor="middle" fill="#374151" font-size="11">客机巡航</text><text x="475" y="312" text-anchor="middle" fill="#9ca3af" font-size="10">0.78-0.85</text>
<rect x="545" y="280" width="130" height="40" rx="6" fill="#f9fafb" stroke="#e5e7eb" stroke-width="1"/>
<text x="610" y="296" text-anchor="middle" fill="#374151" font-size="11">战斗机</text><text x="610" y="312" text-anchor="middle" fill="#9ca3af" font-size="10">1.5-3.0</text>
<rect x="60" y="350" width="680" height="50" rx="6" fill="#eff6ff" stroke="#bfdbfe" stroke-width="1"/>
<text x="400" y="370" text-anchor="middle" fill="#1d4ed8" font-size="12">桨尖Ma 0.3即需可压缩修正·Prandtl-Glauert: Cl,comp = Cl,inc/sqrt(1-Ma2)</text>
</svg>