<svg xmlns="http://www.w3.org/2000/svg" viewBox="0 0 800 420"><style>text{font-family:'WenQuanYi Zen Hei','Droid Sans Fallback','Noto Sans CJK SC',sans-serif;}</style>
<rect width="800" height="420" fill="#ffffff"/>
<text x="400" y="30" text-anchor="middle" fill="#111827" font-size="16" font-weight="600">翼型选型决策树</text>
<rect x="300" y="50" width="200" height="40" rx="20" fill="#1d4ed8"/>
<text x="400" y="76" text-anchor="middle" fill="#ffffff" font-size="13" font-weight="600">任务需求分析</text>
<line x1="350" y1="90" x2="200" y2="120" stroke="#6b7280" stroke-width="1.5" marker-end="url(#a)"/>
<line x1="400" y1="90" x2="400" y2="120" stroke="#6b7280" stroke-width="1.5" marker-end="url(#a)"/>
<line x1="450" y1="90" x2="600" y2="120" stroke="#6b7280" stroke-width="1.5" marker-end="url(#a)"/>
<defs><marker id="a" markerWidth="8" markerHeight="5" refX="7" refY="2.5" orient="auto"><polygon points="0 0,8 2.5,0 5" fill="#2563eb"/></marker></defs>
<rect x="60" y="125" width="200" height="60" rx="8" fill="#dcfce7" stroke="#4ade80" stroke-width="1.5"/>
<text x="160" y="148" text-anchor="middle" fill="#16a34a" font-size="12" font-weight="600">最大升力优先</text>
<text x="160" y="168" text-anchor="middle" fill="#6b7280" font-size="10">短距起降|高载荷</text>
<rect x="300" y="125" width="200" height="60" rx="8" fill="#e0f2fe" stroke="#38bdf8" stroke-width="1.5"/>
<text x="400" y="148" text-anchor="middle" fill="#0284c7" font-size="12" font-weight="600">最低阻力优先</text>
<text x="400" y="168" text-anchor="middle" fill="#6b7280" font-size="10">长航时|高效率</text>
<rect x="540" y="125" width="200" height="60" rx="8" fill="#fef3c7" stroke="#fbbf24" stroke-width="1.5"/>
<text x="640" y="148" text-anchor="middle" fill="#d97706" font-size="12" font-weight="600">力矩特性优先</text>
<text x="640" y="168" text-anchor="middle" fill="#6b7280" font-size="10">配平简便|稳定性</text>
<line x1="160" y1="185" x2="160" y2="215" stroke="#6b7280" stroke-width="1"/>
<line x1="400" y1="185" x2="400" y2="215" stroke="#6b7280" stroke-width="1"/>
<line x1="640" y1="185" x2="640" y2="215" stroke="#6b7280" stroke-width="1"/>
<rect x="60" y="220" width="200" height="50" rx="6" fill="#f9fafb" stroke="#e5e7eb" stroke-width="1"/>
<text x="160" y="240" text-anchor="middle" fill="#374151" font-size="11">NACA 44XX/23XXX</text>
<text x="160" y="258" text-anchor="middle" fill="#9ca3af" font-size="10">Cl,max ≥ 1.6</text>
<rect x="300" y="220" width="200" height="50" rx="6" fill="#f9fafb" stroke="#e5e7eb" stroke-width="1"/>
<text x="400" y="240" text-anchor="middle" fill="#374151" font-size="11">NACA 6系列层流翼型</text>
<text x="400" y="258" text-anchor="middle" fill="#9ca3af" font-size="10">Cd,min ≈ 0.004-0.005</text>
<rect x="540" y="220" width="200" height="50" rx="6" fill="#f9fafb" stroke="#e5e7eb" stroke-width="1"/>
<text x="640" y="240" text-anchor="middle" fill="#374151" font-size="11">对称翼型NACA 00XX</text>
<text x="640" y="258" text-anchor="middle" fill="#9ca3af" font-size="10">Cm,c/4 ≈ 0</text>
<rect x="130" y="310" width="540" height="60" rx="8" fill="#f5f3ff" stroke="#c4b5fd" stroke-width="1.5"/>
<text x="400" y="332" text-anchor="middle" fill="#7c3aed" font-size="12">注意工况：Re影响Cl,max，Ma影响可压缩修正</text>
<text x="400" y="352" text-anchor="middle" fill="#6b7280" font-size="11">四旋翼桨叶 Re≈10⁴-10⁵ → NACA数据需低雷诺数专用修正</text>
</svg>