<svg xmlns="http://www.w3.org/2000/svg" viewBox="0 0 800 400"><style>text{font-family:'WenQuanYi Zen Hei','Droid Sans Fallback','Noto Sans CJK SC',sans-serif;}</style>
<rect width="800" height="400" fill="#ffffff"/>
<text x="400" y="30" text-anchor="middle" fill="#111827" font-size="16" font-weight="600">经典NACA翼型特性对比 (Re≈3×10⁶)</text>
<rect x="30" y="60" width="110" height="35" rx="4" fill="#1d4ed8"/><text x="85" y="83" text-anchor="middle" fill="#fff" font-size="11" font-weight="600">翼型</text>
<rect x="145" y="60" width="110" height="35" rx="4" fill="#1d4ed8"/><text x="200" y="83" text-anchor="middle" fill="#fff" font-size="11" font-weight="600">厚度t/c</text>
<rect x="260" y="60" width="110" height="35" rx="4" fill="#1d4ed8"/><text x="315" y="83" text-anchor="middle" fill="#fff" font-size="11" font-weight="600">弯度</text>
<rect x="375" y="60" width="100" height="35" rx="4" fill="#1d4ed8"/><text x="425" y="83" text-anchor="middle" fill="#fff" font-size="11" font-weight="600">Cl,max</text>
<rect x="480" y="60" width="100" height="35" rx="4" fill="#1d4ed8"/><text x="530" y="83" text-anchor="middle" fill="#fff" font-size="11" font-weight="600">Cd,min</text>
<rect x="585" y="60" width="90" height="35" rx="4" fill="#1d4ed8"/><text x="630" y="83" text-anchor="middle" fill="#fff" font-size="11" font-weight="600">Cm,c/4</text>
<rect x="680" y="60" width="90" height="35" rx="4" fill="#1d4ed8"/><text x="725" y="83" text-anchor="middle" fill="#fff" font-size="11" font-weight="600">用途</text>
<rect x="30" y="100" width="110" height="38" fill="#f9fafb"/><text x="85" y="124" text-anchor="middle" fill="#374151" font-size="11">0012</text>
<rect x="145" y="100" width="110" height="38" fill="#f9fafb"/><text x="200" y="124" text-anchor="middle" fill="#374151" font-size="11">12%</text>
<rect x="260" y="100" width="110" height="38" fill="#f9fafb"/><text x="315" y="124" text-anchor="middle" fill="#374151" font-size="11">对称</text>
<rect x="375" y="100" width="100" height="38" fill="#f9fafb"/><text x="425" y="124" text-anchor="middle" fill="#374151" font-size="11">1.2</text>
<rect x="480" y="100" width="100" height="38" fill="#f9fafb"/><text x="530" y="124" text-anchor="middle" fill="#374151" font-size="11">0.005</text>
<rect x="585" y="100" width="90" height="38" fill="#f9fafb"/><text x="630" y="124" text-anchor="middle" fill="#374151" font-size="11">0</text>
<rect x="680" y="100" width="90" height="38" fill="#f9fafb"/><text x="725" y="124" text-anchor="middle" fill="#374151" font-size="10">旋翼尾翼</text>
<rect x="30" y="143" width="110" height="38" fill="#ffffff"/><text x="85" y="167" text-anchor="middle" fill="#374151" font-size="11">2412</text>
<rect x="145" y="143" width="110" height="38" fill="#ffffff"/><text x="200" y="167" text-anchor="middle" fill="#374151" font-size="11">12%</text>
<rect x="260" y="143" width="110" height="38" fill="#ffffff"/><text x="315" y="167" text-anchor="middle" fill="#374151" font-size="11">2%</text>
<rect x="375" y="143" width="100" height="38" fill="#ffffff"/><text x="425" y="167" text-anchor="middle" fill="#374151" font-size="11">1.5</text>
<rect x="480" y="143" width="100" height="38" fill="#ffffff"/><text x="530" y="167" text-anchor="middle" fill="#374151" font-size="11">0.006</text>
<rect x="585" y="143" width="90" height="38" fill="#ffffff"/><text x="630" y="167" text-anchor="middle" fill="#374151" font-size="11">-0.05</text>
<rect x="680" y="143" width="90" height="38" fill="#ffffff"/><text x="725" y="167" text-anchor="middle" fill="#374151" font-size="10">通用机</text>
<rect x="30" y="186" width="110" height="38" fill="#f9fafb"/><text x="85" y="210" text-anchor="middle" fill="#374151" font-size="11">4412</text>
<rect x="145" y="186" width="110" height="38" fill="#f9fafb"/><text x="200" y="210" text-anchor="middle" fill="#374151" font-size="11">12%</text>
<rect x="260" y="186" width="110" height="38" fill="#f9fafb"/><text x="315" y="210" text-anchor="middle" fill="#374151" font-size="11">4%</text>
<rect x="375" y="186" width="100" height="38" fill="#f9fafb"/><text x="425" y="210" text-anchor="middle" fill="#374151" font-size="11">1.6</text>
<rect x="480" y="186" width="100" height="38" fill="#f9fafb"/><text x="530" y="210" text-anchor="middle" fill="#374151" font-size="11">0.007</text>
<rect x="585" y="186" width="90" height="38" fill="#f9fafb"/><text x="630" y="210" text-anchor="middle" fill="#374151" font-size="11">-0.10</text>
<rect x="680" y="186" width="90" height="38" fill="#f9fafb"/><text x="725" y="210" text-anchor="middle" fill="#374151" font-size="10">高升力</text>
<rect x="30" y="229" width="110" height="38" fill="#ffffff"/><text x="85" y="253" text-anchor="middle" fill="#374151" font-size="11">23012</text>
<rect x="145" y="229" width="110" height="38" fill="#ffffff"/><text x="200" y="253" text-anchor="middle" fill="#374151" font-size="11">12%</text>
<rect x="260" y="229" width="110" height="38" fill="#ffffff"/><text x="315" y="253" text-anchor="middle" fill="#374151" font-size="11">1.8%</text>
<rect x="375" y="229" width="100" height="38" fill="#ffffff"/><text x="425" y="253" text-anchor="middle" fill="#374151" font-size="11">1.5</text>
<rect x="480" y="229" width="100" height="38" fill="#ffffff"/><text x="530" y="253" text-anchor="middle" fill="#374151" font-size="11">0.006</text>
<rect x="585" y="229" width="90" height="38" fill="#ffffff"/><text x="630" y="253" text-anchor="middle" fill="#374151" font-size="11">-0.06</text>
<rect x="680" y="229" width="90" height="38" fill="#ffffff"/><text x="725" y="253" text-anchor="middle" fill="#374151" font-size="10">螺旋桨</text>
<rect x="30" y="272" width="110" height="38" fill="#f9fafb"/><text x="85" y="296" text-anchor="middle" fill="#374151" font-size="11">63-412</text>
<rect x="145" y="272" width="110" height="38" fill="#f9fafb"/><text x="200" y="296" text-anchor="middle" fill="#374151" font-size="11">12%</text>
<rect x="260" y="272" width="110" height="38" fill="#f9fafb"/><text x="315" y="296" text-anchor="middle" fill="#374151" font-size="11">层流</text>
<rect x="375" y="272" width="100" height="38" fill="#f9fafb"/><text x="425" y="296" text-anchor="middle" fill="#374151" font-size="11">1.3</text>
<rect x="480" y="272" width="100" height="38" fill="#f9fafb"/><text x="530" y="296" text-anchor="middle" fill="#374151" font-size="11">0.004</text>
<rect x="585" y="272" width="90" height="38" fill="#f9fafb"/><text x="630" y="296" text-anchor="middle" fill="#374151" font-size="11">~0</text>
<rect x="680" y="272" width="90" height="38" fill="#f9fafb"/><text x="725" y="296" text-anchor="middle" fill="#374151" font-size="10">巡航</text>
<rect x="60" y="340" width="680" height="40" rx="6" fill="#eff6ff" stroke="#bfdbfe" stroke-width="1"/>
<text x="400" y="358" text-anchor="middle" fill="#1d4ed8" font-size="11">选型要点：优先按巡航Re和Ma选·低雷诺数需专用数据(Selig, Eppler系列)</text>
</svg>