<svg xmlns="http://www.w3.org/2000/svg" viewBox="0 0 1200 700">
  <defs>
    <filter id="shadow" x="-5%" y="-5%" width="110%" height="110%">
      <feDropShadow dx="2" dy="3" stdDeviation="3" flood-opacity="0.12"/>
    </filter>
  </defs>
  <rect width="1200" height="700" fill="#ffffff"/>
  <text x="600" y="36" text-anchor="middle" font-family="sans-serif" font-size="20" font-weight="bold" fill="#1e293b">Dreamer系列演进时间线：从像素预测到万能世界模型</text>
  <text x="600" y="56" text-anchor="middle" font-family="sans-serif" font-size="12" fill="#64748b">PlaNet (2019) → DreamerV1-V4 (2020-2025) — 一个超参集合统治一切</text>
  <line x1="60" y1="280" x2="1140" y2="280" stroke="#cbd5e1" stroke-width="3"/>
  <polygon points="1140,274 1150,280 1140,286" fill="#cbd5e1"/>
  <line x1="100" y1="280" x2="100" y2="120" stroke="#94a3b8" stroke-width="2" stroke-dasharray="4,3"/>
  <circle cx="100" cy="280" r="10" fill="#94a3b8" stroke="#ffffff" stroke-width="2" filter="url(#shadow)"/>
  <text x="100" y="302" text-anchor="middle" font-family="sans-serif" font-size="13" font-weight="bold" fill="#94a3b8">2019</text>
  <rect x="0.0" y="20" width="200" height="100" rx="8" fill="#ffffff" stroke="#94a3b8" stroke-width="2" filter="url(#shadow)"/>
  <rect x="0.0" y="20" width="200" height="28" rx="8" fill="#94a3b8"/>
  <rect x="0.0" y="40" width="200" height="8" fill="#94a3b8"/>
  <text x="100" y="39" text-anchor="middle" font-family="sans-serif" font-size="13" font-weight="bold" fill="#ffffff">PlaNet</text>
  <text x="100" y="65" text-anchor="middle" font-family="sans-serif" font-size="9" fill="#64748b">arXiv:1811.04551</text>
  <text x="100" y="78" text-anchor="middle" font-family="sans-serif" font-size="11" fill="#334155">RSSM + CEM 规划</text>
  <text x="100" y="94" text-anchor="middle" font-family="sans-serif" font-size="11" fill="#334155">像素预测规划</text>
  <line x1="280" y1="280" x2="280" y2="420" stroke="#3b82f6" stroke-width="2" stroke-dasharray="4,3"/>
  <circle cx="280" cy="280" r="10" fill="#3b82f6" stroke="#ffffff" stroke-width="2" filter="url(#shadow)"/>
  <text x="280" y="258" text-anchor="middle" font-family="sans-serif" font-size="13" font-weight="bold" fill="#3b82f6">2020</text>
  <rect x="180.0" y="370.0" width="200" height="100" rx="8" fill="#ffffff" stroke="#3b82f6" stroke-width="2" filter="url(#shadow)"/>
  <rect x="180.0" y="370.0" width="200" height="28" rx="8" fill="#3b82f6"/>
  <rect x="180.0" y="390.0" width="200" height="8" fill="#3b82f6"/>
  <text x="280" y="389.0" text-anchor="middle" font-family="sans-serif" font-size="13" font-weight="bold" fill="#ffffff">DreamerV1</text>
  <text x="280" y="415.0" text-anchor="middle" font-family="sans-serif" font-size="9" fill="#64748b">ICLR 2020
arXiv:1912.01603</text>
  <text x="280" y="428.0" text-anchor="middle" font-family="sans-serif" font-size="11" fill="#334155">隐空间反向传播梯度</text>
  <text x="280" y="444.0" text-anchor="middle" font-family="sans-serif" font-size="11" fill="#334155">Actor-Critic 想象</text>
  <line x1="460" y1="280" x2="460" y2="120" stroke="#8b5cf6" stroke-width="2" stroke-dasharray="4,3"/>
  <circle cx="460" cy="280" r="10" fill="#8b5cf6" stroke="#ffffff" stroke-width="2" filter="url(#shadow)"/>
  <text x="460" y="302" text-anchor="middle" font-family="sans-serif" font-size="13" font-weight="bold" fill="#8b5cf6">2021</text>
  <rect x="360.0" y="20" width="200" height="100" rx="8" fill="#ffffff" stroke="#8b5cf6" stroke-width="2" filter="url(#shadow)"/>
  <rect x="360.0" y="20" width="200" height="28" rx="8" fill="#8b5cf6"/>
  <rect x="360.0" y="40" width="200" height="8" fill="#8b5cf6"/>
  <text x="460" y="39" text-anchor="middle" font-family="sans-serif" font-size="13" font-weight="bold" fill="#ffffff">DreamerV2</text>
  <text x="460" y="65" text-anchor="middle" font-family="sans-serif" font-size="9" fill="#64748b">ICLR 2021
arXiv:2010.02193</text>
  <text x="460" y="78" text-anchor="middle" font-family="sans-serif" font-size="11" fill="#334155">离散隐变量</text>
  <text x="460" y="94" text-anchor="middle" font-family="sans-serif" font-size="11" fill="#334155">直通估计器</text>
  <text x="460" y="110" text-anchor="middle" font-family="sans-serif" font-size="11" fill="#334155">Atari 人类水平</text>
  <line x1="640" y1="280" x2="640" y2="420" stroke="#f59e0b" stroke-width="2" stroke-dasharray="4,3"/>
  <circle cx="640" cy="280" r="10" fill="#f59e0b" stroke="#ffffff" stroke-width="2" filter="url(#shadow)"/>
  <text x="640" y="258" text-anchor="middle" font-family="sans-serif" font-size="13" font-weight="bold" fill="#f59e0b">2023</text>
  <rect x="540.0" y="370.0" width="200" height="100" rx="8" fill="#ffffff" stroke="#f59e0b" stroke-width="2" filter="url(#shadow)"/>
  <rect x="540.0" y="370.0" width="200" height="28" rx="8" fill="#f59e0b"/>
  <rect x="540.0" y="390.0" width="200" height="8" fill="#f59e0b"/>
  <text x="640" y="389.0" text-anchor="middle" font-family="sans-serif" font-size="13" font-weight="bold" fill="#ffffff">DreamerV3</text>
  <text x="640" y="415.0" text-anchor="middle" font-family="sans-serif" font-size="9" fill="#64748b">NeurIPS 2023
arXiv:2301.04104</text>
  <text x="640" y="428.0" text-anchor="middle" font-family="sans-serif" font-size="11" fill="#334155">一个超参通吃一切</text>
  <text x="640" y="444.0" text-anchor="middle" font-family="sans-serif" font-size="11" fill="#334155">Symlog 预测</text>
  <text x="640" y="460.0" text-anchor="middle" font-family="sans-serif" font-size="11" fill="#334155">7域55任务</text>
  <line x1="820" y1="280" x2="820" y2="120" stroke="#10b981" stroke-width="2" stroke-dasharray="4,3"/>
  <circle cx="820" cy="280" r="10" fill="#10b981" stroke="#ffffff" stroke-width="2" filter="url(#shadow)"/>
  <text x="820" y="302" text-anchor="middle" font-family="sans-serif" font-size="13" font-weight="bold" fill="#10b981">2024</text>
  <rect x="720.0" y="20" width="200" height="100" rx="8" fill="#ffffff" stroke="#10b981" stroke-width="2" filter="url(#shadow)"/>
  <rect x="720.0" y="20" width="200" height="28" rx="8" fill="#10b981"/>
  <rect x="720.0" y="40" width="200" height="8" fill="#10b981"/>
  <text x="820" y="39" text-anchor="middle" font-family="sans-serif" font-size="13" font-weight="bold" fill="#ffffff">DayDreamer</text>
  <text x="820" y="65" text-anchor="middle" font-family="sans-serif" font-size="9" fill="#64748b">CoRL 2022
arXiv:2206.14176</text>
  <text x="820" y="78" text-anchor="middle" font-family="sans-serif" font-size="11" fill="#334155">真实机器人部署</text>
  <text x="820" y="94" text-anchor="middle" font-family="sans-serif" font-size="11" fill="#334155">四足/轮式</text>
  <text x="820" y="110" text-anchor="middle" font-family="sans-serif" font-size="11" fill="#334155">2-4h学会行走</text>
  <line x1="1000" y1="280" x2="1000" y2="420" stroke="#ef4444" stroke-width="2" stroke-dasharray="4,3"/>
  <circle cx="1000" cy="280" r="10" fill="#ef4444" stroke="#ffffff" stroke-width="2" filter="url(#shadow)"/>
  <text x="1000" y="258" text-anchor="middle" font-family="sans-serif" font-size="13" font-weight="bold" fill="#ef4444">2025</text>
  <rect x="900.0" y="370.0" width="200" height="100" rx="8" fill="#ffffff" stroke="#ef4444" stroke-width="2" filter="url(#shadow)"/>
  <rect x="900.0" y="370.0" width="200" height="28" rx="8" fill="#ef4444"/>
  <rect x="900.0" y="390.0" width="200" height="8" fill="#ef4444"/>
  <text x="1000" y="389.0" text-anchor="middle" font-family="sans-serif" font-size="13" font-weight="bold" fill="#ffffff">DreamerV4</text>
  <text x="1000" y="415.0" text-anchor="middle" font-family="sans-serif" font-size="9" fill="#64748b">代码已释出
论文待发表</text>
  <text x="1000" y="428.0" text-anchor="middle" font-family="sans-serif" font-size="11" fill="#334155">课程学习</text>
  <text x="1000" y="444.0" text-anchor="middle" font-family="sans-serif" font-size="11" fill="#334155">探索增强</text>
  <text x="1000" y="460.0" text-anchor="middle" font-family="sans-serif" font-size="11" fill="#334155">并行 Rollout</text>
  <rect x="60" y="580" width="1080" height="90" rx="8" fill="#f0f9ff" stroke="#bae6fd" stroke-width="1"/>
  <text x="600" y="608" text-anchor="middle" font-family="sans-serif" font-size="14" font-weight="bold" fill="#0369a1">核心洞察</text>
  <text x="80" y="632" font-family="sans-serif" font-size="12" fill="#0c4a6e">1. V1→V2：从连续高斯到离散类别 — 解决多模态环境中 Posterior Collapse 问题</text>
  <text x="80" y="654" font-family="sans-serif" font-size="12" fill="#0c4a6e">2. V2→V3：从逐任务调参到万能配置 — Symlog 预测 + 自适应损失权重 + 动态想象范围</text>
</svg>