<?xml version="1.0" encoding="UTF-8"?>
<svg xmlns="http://www.w3.org/2000/svg" viewBox="0 0 700 460">
<rect width="700" height="460" fill="#0d1117"/>
<text x="350.0" y="30" fill="#f0f6fc" font-size="18" text-anchor="middle" font-weight="bold">图3  高度变化曲线</text>
<line x1="70" y1="410.0" x2="650" y2="410.0" stroke="#21262d" stroke-width="1"/>
<text x="62" y="414.0" fill="#8b949e" font-size="11" text-anchor="end">-200</text>
<line x1="70" y1="360.0" x2="650" y2="360.0" stroke="#21262d" stroke-width="1"/>
<text x="62" y="364.0" fill="#8b949e" font-size="11" text-anchor="end">-160</text>
<line x1="70" y1="310.0" x2="650" y2="310.0" stroke="#21262d" stroke-width="1"/>
<text x="62" y="314.0" fill="#8b949e" font-size="11" text-anchor="end">-120</text>
<line x1="70" y1="260.0" x2="650" y2="260.0" stroke="#21262d" stroke-width="1"/>
<text x="62" y="264.0" fill="#8b949e" font-size="11" text-anchor="end">-80</text>
<line x1="70" y1="210.0" x2="650" y2="210.0" stroke="#21262d" stroke-width="1"/>
<text x="62" y="214.0" fill="#8b949e" font-size="11" text-anchor="end">-40</text>
<line x1="70" y1="160.0" x2="650" y2="160.0" stroke="#21262d" stroke-width="1"/>
<text x="62" y="164.0" fill="#8b949e" font-size="11" text-anchor="end">0</text>
<line x1="70" y1="110.0" x2="650" y2="110.0" stroke="#21262d" stroke-width="1"/>
<text x="62" y="114.0" fill="#8b949e" font-size="11" text-anchor="end">40</text>
<line x1="70" y1="60.0" x2="650" y2="60.0" stroke="#21262d" stroke-width="1"/>
<text x="62" y="64.0" fill="#8b949e" font-size="11" text-anchor="end">80</text>
<line x1="70.0" y1="60" x2="70.0" y2="410" stroke="#21262d" stroke-width="1"/>
<text x="70.0" y="428" fill="#8b949e" font-size="11" text-anchor="middle">0s</text>
<line x1="166.66666666666666" y1="60" x2="166.66666666666666" y2="410" stroke="#21262d" stroke-width="1"/>
<text x="166.66666666666666" y="428" fill="#8b949e" font-size="11" text-anchor="middle">5s</text>
<line x1="263.3333333333333" y1="60" x2="263.3333333333333" y2="410" stroke="#21262d" stroke-width="1"/>
<text x="263.3333333333333" y="428" fill="#8b949e" font-size="11" text-anchor="middle">10s</text>
<line x1="360.0" y1="60" x2="360.0" y2="410" stroke="#21262d" stroke-width="1"/>
<text x="360.0" y="428" fill="#8b949e" font-size="11" text-anchor="middle">15s</text>
<line x1="456.66666666666663" y1="60" x2="456.66666666666663" y2="410" stroke="#21262d" stroke-width="1"/>
<text x="456.66666666666663" y="428" fill="#8b949e" font-size="11" text-anchor="middle">20s</text>
<line x1="553.3333333333334" y1="60" x2="553.3333333333334" y2="410" stroke="#21262d" stroke-width="1"/>
<text x="553.3333333333334" y="428" fill="#8b949e" font-size="11" text-anchor="middle">25s</text>
<line x1="650.0" y1="60" x2="650.0" y2="410" stroke="#21262d" stroke-width="1"/>
<text x="650.0" y="428" fill="#8b949e" font-size="11" text-anchor="middle">30s</text>
<line x1="70" y1="97.5" x2="650" y2="97.5" stroke="#484f58" stroke-width="1.5" stroke-dasharray="6,3"/>
<text x="74" y="92.5" fill="#8b949e" font-size="10">目标 50m</text>
<line x1="70" y1="160.0" x2="650" y2="160.0" stroke="#484f58" stroke-width="1"/>
<text x="74" y="156.0" fill="#484f58" font-size="10">地面</text>
<path d="M 70.0,97.5 L 71.9,97.8 L 73.9,98.0 L 75.8,98.3 L 77.7,98.6 L 79.7,98.8 L 81.6,99.1 L 83.5,99.4 L 85.5,99.6 L 87.4,99.9 L 89.3,100.2 L 91.3,100.4 L 93.2,100.7 L 95.1,101.0 L 97.1,101.2 L 99.0,101.5 L 100.9,101.8 L 102.9,102.0 L 104.8,102.3 L 106.7,102.6 L 108.7,102.8 L 110.6,103.1 L 112.5,103.4 L 114.5,103.6 L 116.4,103.9 L 118.3,104.2 L 120.3,104.4 L 122.2,104.7 L 124.1,105.0 L 126.1,105.2 L 128.0,105.5 L 129.9,105.8 L 131.9,106.0 L 133.8,106.3 L 135.7,106.6 L 137.7,106.8 L 139.6,107.1 L 141.5,107.4 L 143.5,107.6 L 145.4,107.9 L 147.3,108.1 L 149.3,108.4 L 151.2,108.7 L 153.1,108.9 L 155.1,109.2 L 157.0,109.5 L 158.9,109.7 L 160.9,110.0 L 162.8,110.3 L 164.7,110.5 L 166.7,110.8 L 168.6,111.1 L 170.5,111.3 L 172.5,111.6 L 174.4,111.9 L 176.3,112.1 L 178.3,112.4 L 180.2,112.7 L 182.1,112.9 L 184.1,113.2 L 186.0,113.5 L 187.9,113.7 L 189.9,114.0 L 191.8,114.3 L 193.7,114.5 L 195.7,114.8 L 197.6,115.1 L 199.5,115.3 L 201.5,115.6 L 203.4,115.9 L 205.3,116.1 L 207.3,116.4 L 209.2,116.7 L 211.1,116.9 L 213.1,117.2 L 215.0,117.5 L 216.9,117.7 L 218.9,118.0 L 220.8,118.3 L 222.7,118.5 L 224.7,118.8 L 226.6,119.1 L 228.5,119.3 L 230.5,119.6 L 232.4,119.9 L 234.3,120.1 L 236.3,120.4 L 238.2,120.7 L 240.1,120.9 L 242.1,121.2 L 244.0,121.5 L 245.9,121.7 L 247.9,122.0 L 249.8,122.3 L 251.7,122.5 L 253.7,122.8 L 255.6,123.1 L 257.5,123.3 L 259.5,123.6 L 261.4,123.9 L 263.3,124.1 L 265.3,124.4 L 267.2,124.7 L 269.1,124.9 L 271.1,125.2 L 273.0,125.5 L 274.9,125.7 L 276.9,126.0 L 278.8,126.3 L 280.7,126.5 L 282.7,126.8 L 284.6,127.1 L 286.5,127.3 L 288.5,127.6 L 290.4,127.9 L 292.3,128.1 L 294.3,128.4 L 296.2,128.7 L 298.1,128.9 L 300.1,129.2 L 302.0,129.4 L 303.9,129.7 L 305.9,130.0 L 307.8,130.2 L 309.7,130.5 L 311.7,130.8 L 313.6,131.0 L 315.5,131.3 L 317.5,131.6 L 319.4,131.8 L 321.3,132.1 L 323.3,132.4 L 325.2,132.6 L 327.1,132.9 L 329.1,133.2 L 331.0,133.4 L 332.9,133.7 L 334.9,134.0 L 336.8,134.2 L 338.7,134.5 L 340.7,134.8 L 342.6,135.0 L 344.5,135.3 L 346.5,135.6 L 348.4,135.8 L 350.3,136.1 L 352.3,136.4 L 354.2,136.6 L 356.1,136.9 L 358.1,137.2 L 360.0,137.4 L 361.9,137.7 L 363.9,138.0 L 365.8,138.2 L 367.7,138.5 L 369.7,138.8 L 371.6,139.0 L 373.5,139.3 L 375.5,139.6 L 377.4,139.8 L 379.3,140.1 L 381.3,140.4 L 383.2,140.6 L 385.1,140.9 L 387.1,141.2 L 389.0,141.4 L 390.9,141.7 L 392.9,142.0 L 394.8,142.2 L 396.7,142.5 L 398.7,142.8 L 400.6,143.0 L 402.5,143.3 L 404.5,143.6 L 406.4,143.8 L 408.3,144.1 L 410.3,144.4 L 412.2,144.6 L 414.1,144.9 L 416.1,145.2 L 418.0,145.4 L 419.9,145.7 L 421.9,146.0 L 423.8,146.2 L 425.7,146.5 L 427.7,146.8 L 429.6,147.0 L 431.5,147.3 L 433.5,147.6 L 435.4,147.8 L 437.3,148.1 L 439.3,148.4 L 441.2,148.6 L 443.1,148.9 L 445.1,149.2 L 447.0,149.4 L 448.9,149.7 L 450.9,150.0 L 452.8,150.2 L 454.7,150.5 L 456.7,150.8 L 458.6,151.0 L 460.5,151.3 L 462.5,151.5 L 464.4,151.8 L 466.3,152.1 L 468.3,152.3 L 470.2,152.6 L 472.1,152.9 L 474.1,153.1 L 476.0,153.4 L 477.9,153.7 L 479.9,153.9 L 481.8,154.2 L 483.7,154.5 L 485.7,154.7 L 487.6,155.0 L 489.5,155.3 L 491.5,155.5 L 493.4,155.8 L 495.3,156.1 L 497.3,156.3 L 499.2,156.6 L 501.1,156.9 L 503.1,157.1 L 505.0,157.4 L 506.9,157.7 L 508.9,157.9 L 510.8,158.2 L 512.7,158.5 L 514.7,158.7 L 516.6,159.0 L 518.5,159.3 L 520.5,159.5 L 522.4,159.8 L 524.3,160.1 L 526.3,160.3 L 528.2,160.6 L 530.1,160.9 L 532.1,161.1 L 534.0,161.4 L 535.9,161.7 L 537.9,161.9 L 539.8,162.2 L 541.7,162.5 L 543.7,162.7 L 545.6,163.0 L 547.5,163.3 L 549.5,163.5 L 551.4,163.8 L 553.3,164.1 L 555.3,164.3 L 557.2,164.6 L 559.1,164.9 L 561.1,165.1 L 563.0,165.4 L 564.9,165.7 L 566.9,165.9 L 568.8,166.2 L 570.7,166.5 L 572.7,166.7 L 574.6,167.0 L 576.5,167.3 L 578.5,167.5 L 580.4,167.8 L 582.3,168.1 L 584.3,168.3 L 586.2,168.6 L 588.1,168.9 L 590.1,169.1 L 592.0,169.4 L 593.9,169.7 L 595.9,169.9 L 597.8,170.2 L 599.7,170.5 L 601.7,170.7 L 603.6,171.0 L 605.5,171.3 L 607.5,171.5 L 609.4,171.8 L 611.3,172.0 L 613.3,172.3 L 615.2,172.6 L 617.1,172.8 L 619.1,173.1 L 621.0,173.4 L 622.9,173.6 L 624.9,173.9 L 626.8,174.2 L 628.7,174.4 L 630.7,174.7 L 632.6,175.0 L 634.5,175.2 L 636.5,175.5 L 638.4,175.8 L 640.3,176.0 L 642.3,176.3 L 644.2,176.6 L 646.1,176.8 L 648.1,177.1 L 650.0,177.4" fill="none" stroke="#3fb950" stroke-width="2.5" stroke-linecap="round"/>
<text x="655" y="177" fill="#3fb950" font-size="13" font-weight="bold">θ=50°</text>
<path d="M 70.0,97.5 L 71.9,97.5 L 73.9,97.5 L 75.8,97.5 L 77.7,97.5 L 79.7,97.6 L 81.6,97.6 L 83.5,97.7 L 85.5,97.7 L 87.4,97.8 L 89.3,97.8 L 91.3,97.9 L 93.2,97.9 L 95.1,98.0 L 97.1,98.1 L 99.0,98.2 L 100.9,98.3 L 102.9,98.4 L 104.8,98.5 L 106.7,98.6 L 108.7,98.8 L 110.6,98.9 L 112.5,99.0 L 114.5,99.2 L 116.4,99.3 L 118.3,99.5 L 120.3,99.6 L 122.2,99.8 L 124.1,100.0 L 126.1,100.1 L 128.0,100.3 L 129.9,100.5 L 131.9,100.7 L 133.8,100.9 L 135.7,101.1 L 137.7,101.3 L 139.6,101.6 L 141.5,101.8 L 143.5,102.0 L 145.4,102.3 L 147.3,102.5 L 149.3,102.8 L 151.2,103.0 L 153.1,103.3 L 155.1,103.6 L 157.0,103.8 L 158.9,104.1 L 160.9,104.4 L 162.8,104.7 L 164.7,105.0 L 166.7,105.3 L 168.6,105.6 L 170.5,105.9 L 172.5,106.3 L 174.4,106.6 L 176.3,107.0 L 178.3,107.3 L 180.2,107.7 L 182.1,108.0 L 184.1,108.4 L 186.0,108.8 L 187.9,109.1 L 189.9,109.5 L 191.8,109.9 L 193.7,110.3 L 195.7,110.7 L 197.6,111.1 L 199.5,111.5 L 201.5,111.9 L 203.4,112.4 L 205.3,112.8 L 207.3,113.3 L 209.2,113.7 L 211.1,114.2 L 213.1,114.6 L 215.0,115.1 L 216.9,115.6 L 218.9,116.0 L 220.8,116.5 L 222.7,117.0 L 224.7,117.5 L 226.6,118.0 L 228.5,118.5 L 230.5,119.0 L 232.4,119.5 L 234.3,120.1 L 236.3,120.6 L 238.2,121.2 L 240.1,121.7 L 242.1,122.3 L 244.0,122.8 L 245.9,123.4 L 247.9,123.9 L 249.8,124.5 L 251.7,125.1 L 253.7,125.7 L 255.6,126.3 L 257.5,126.9 L 259.5,127.5 L 261.4,128.1 L 263.3,128.8 L 265.3,129.4 L 267.2,130.0 L 269.1,130.7 L 271.1,131.3 L 273.0,132.0 L 274.9,132.6 L 276.9,133.3 L 278.8,133.9 L 280.7,134.6 L 282.7,135.3 L 284.6,136.0 L 286.5,136.7 L 288.5,137.4 L 290.4,138.1 L 292.3,138.8 L 294.3,139.5 L 296.2,140.3 L 298.1,141.0 L 300.1,141.8 L 302.0,142.5 L 303.9,143.3 L 305.9,144.0 L 307.8,144.8 L 309.7,145.6 L 311.7,146.3 L 313.6,147.1 L 315.5,147.9 L 317.5,148.7 L 319.4,149.5 L 321.3,150.3 L 323.3,151.1 L 325.2,151.9 L 327.1,152.8 L 329.1,153.6 L 331.0,154.5 L 332.9,155.3 L 334.9,156.2 L 336.8,157.0 L 338.7,157.9 L 340.7,158.8 L 342.6,159.6 L 344.5,160.5 L 346.5,161.4 L 348.4,162.3 L 350.3,163.2 L 352.3,164.1 L 354.2,165.0 L 356.1,165.9 L 358.1,166.9 L 360.0,167.8 L 361.9,168.8 L 363.9,169.7 L 365.8,170.7 L 367.7,171.6 L 369.7,172.6 L 371.6,173.5 L 373.5,174.5 L 375.5,175.5 L 377.4,176.5 L 379.3,177.5 L 381.3,178.5 L 383.2,179.5 L 385.1,180.5 L 387.1,181.6 L 389.0,182.6 L 390.9,183.6 L 392.9,184.7 L 394.8,185.7 L 396.7,186.8 L 398.7,187.8 L 400.6,188.9 L 402.5,189.9 L 404.5,191.0 L 406.4,192.1 L 408.3,193.2 L 410.3,194.3 L 412.2,195.4 L 414.1,196.5 L 416.1,197.6 L 418.0,198.8 L 419.9,199.9 L 421.9,201.0 L 423.8,202.2 L 425.7,203.3 L 427.7,204.5 L 429.6,205.6 L 431.5,206.8 L 433.5,207.9 L 435.4,209.1 L 437.3,210.3 L 439.3,211.5 L 441.2,212.7 L 443.1,213.9 L 445.1,215.1 L 447.0,216.3 L 448.9,217.6 L 450.9,218.8 L 452.8,220.0 L 454.7,221.3 L 456.7,222.5 L 458.6,223.8 L 460.5,225.0 L 462.5,226.3 L 464.4,227.5 L 466.3,228.8 L 468.3,230.1 L 470.2,231.4 L 472.1,232.7 L 474.1,234.0 L 476.0,235.3 L 477.9,236.6 L 479.9,238.0 L 481.8,239.3 L 483.7,240.6 L 485.7,242.0 L 487.6,243.3 L 489.5,244.7 L 491.5,246.0 L 493.4,247.4 L 495.3,248.8 L 497.3,250.1 L 499.2,251.5 L 501.1,252.9 L 503.1,254.3 L 505.0,255.7 L 506.9,257.1 L 508.9,258.5 L 510.8,260.0 L 512.7,261.4 L 514.7,262.8 L 516.6,264.3 L 518.5,265.7 L 520.5,267.2 L 522.4,268.6 L 524.3,270.1 L 526.3,271.6 L 528.2,273.0 L 530.1,274.5 L 532.1,276.0 L 534.0,277.5 L 535.9,279.0 L 537.9,280.5 L 539.8,282.0 L 541.7,283.5 L 543.7,285.1 L 545.6,286.6 L 547.5,288.2 L 549.5,289.7 L 551.4,291.3 L 553.3,292.8 L 555.3,294.4 L 557.2,295.9 L 559.1,297.5 L 561.1,299.1 L 563.0,300.7 L 564.9,302.3 L 566.9,303.9 L 568.8,305.5 L 570.7,307.1 L 572.7,308.8 L 574.6,310.4 L 576.5,312.0 L 578.5,313.7 L 580.4,315.3 L 582.3,317.0 L 584.3,318.6 L 586.2,320.3 L 588.1,321.9 L 590.1,323.6 L 592.0,325.3" fill="none" stroke="#d2991d" stroke-width="2.5" stroke-linecap="round"/>
<text x="597" y="325" fill="#d2991d" font-size="13" font-weight="bold">θ=65°</text>
<path d="M 70.0,97.5 L 71.9,97.5 L 73.9,97.5 L 75.8,97.6 L 77.7,97.6 L 79.7,97.7 L 81.6,97.8 L 83.5,97.9 L 85.5,98.0 L 87.4,98.1 L 89.3,98.2 L 91.3,98.4 L 93.2,98.6 L 95.1,98.8 L 97.1,99.0 L 99.0,99.2 L 100.9,99.4 L 102.9,99.7 L 104.8,99.9 L 106.7,100.2 L 108.7,100.5 L 110.6,100.8 L 112.5,101.1 L 114.5,101.5 L 116.4,101.8 L 118.3,102.2 L 120.3,102.6 L 122.2,103.0 L 124.1,103.4 L 126.1,103.8 L 128.0,104.2 L 129.9,104.7 L 131.9,105.2 L 133.8,105.7 L 135.7,106.2 L 137.7,106.7 L 139.6,107.2 L 141.5,107.8 L 143.5,108.3 L 145.4,108.9 L 147.3,109.5 L 149.3,110.1 L 151.2,110.7 L 153.1,111.4 L 155.1,112.0 L 157.0,112.7 L 158.9,113.4 L 160.9,114.1 L 162.8,114.8 L 164.7,115.5 L 166.7,116.2 L 168.6,117.0 L 170.5,117.8 L 172.5,118.6 L 174.4,119.4 L 176.3,120.2 L 178.3,121.0 L 180.2,121.9 L 182.1,122.7 L 184.1,123.6 L 186.0,124.5 L 187.9,125.4 L 189.9,126.3 L 191.8,127.3 L 193.7,128.2 L 195.7,129.2 L 197.6,130.2 L 199.5,131.2 L 201.5,132.2 L 203.4,133.2 L 205.3,134.2 L 207.3,135.3 L 209.2,136.4 L 211.1,137.5 L 213.1,138.6 L 215.0,139.7 L 216.9,140.8 L 218.9,142.0 L 220.8,143.1 L 222.7,144.3 L 224.7,145.5 L 226.6,146.7 L 228.5,147.9 L 230.5,149.2 L 232.4,150.4 L 234.3,151.7 L 236.3,153.0 L 238.2,154.3 L 240.1,155.6 L 242.1,156.9 L 244.0,158.2 L 245.9,159.6 L 247.9,161.0 L 249.8,162.4 L 251.7,163.8 L 253.7,165.2 L 255.6,166.6 L 257.5,168.1 L 259.5,169.5 L 261.4,171.0 L 263.3,172.5 L 265.3,174.0 L 267.2,175.5 L 269.1,177.1 L 271.1,178.6 L 273.0,180.2 L 274.9,181.8 L 276.9,183.4 L 278.8,185.0 L 280.7,186.6 L 282.7,188.2 L 284.6,189.9 L 286.5,191.6 L 288.5,193.3 L 290.4,195.0 L 292.3,196.7 L 294.3,198.4 L 296.2,200.2 L 298.1,201.9 L 300.1,203.7 L 302.0,205.5 L 303.9,207.3 L 305.9,209.1 L 307.8,211.0 L 309.7,212.8 L 311.7,214.7 L 313.6,216.6 L 315.5,218.5 L 317.5,220.4 L 319.4,222.3 L 321.3,224.2 L 323.3,226.2 L 325.2,228.2 L 327.1,230.2 L 329.1,232.2 L 331.0,234.2 L 332.9,236.2 L 334.9,238.3 L 336.8,240.3 L 338.7,242.4 L 340.7,244.5 L 342.6,246.6 L 344.5,248.7 L 346.5,250.9 L 348.4,253.0 L 350.3,255.2 L 352.3,257.4 L 354.2,259.6 L 356.1,261.8 L 358.1,264.0 L 360.0,266.2 L 361.9,268.5 L 363.9,270.8 L 365.8,273.1 L 367.7,275.4 L 369.7,277.7 L 371.6,280.0 L 373.5,282.4 L 375.5,284.7 L 377.4,287.1 L 379.3,289.5 L 381.3,291.9 L 383.2,294.3 L 385.1,296.8 L 387.1,299.2 L 389.0,301.7 L 390.9,304.2 L 392.9,306.7 L 394.8,309.2 L 396.7,311.7 L 398.7,314.2 L 400.6,316.8 L 402.5,319.4 L 404.5,322.0 L 406.4,324.6 L 408.3,327.2 L 410.3,329.8 L 412.2,332.5 L 414.1,335.1 L 416.1,337.8 L 418.0,340.5" fill="none" stroke="#e05555" stroke-width="2.5" stroke-linecap="round"/>
<text x="423" y="340" fill="#e05555" font-size="13" font-weight="bold">θ=70°</text>
<text x="360.0" y="452" fill="#8b949e" font-size="12" text-anchor="middle">时间 (s)</text>
<rect x="245" y="232" width="430" height="100" rx="6" fill="#161b22" stroke="#30363d"/>
<text x="260" y="254" fill="#3fb950" font-size="11">50°: 微降 ~2 m/s，毫发无损利用率∞ → BEMT模型有效</text>
<text x="260" y="274" fill="#d2991d" font-size="11">65°: μ_axial ≈ 1.09 > 1 → 推力短缺 → 下降加速 → 正反馈</text>
<text x="260" y="294" fill="#e05555" font-size="11">70°: μ_axial ≈ 1.12 → 短缺更大 → 18s坠毁</text>
<text x="260" y="314" fill="#f0f6fc" font-size="11" font-weight="bold">根本原因: 来流速度超过桨尖线速度，旋翼无法产生有效推力</text>
</svg>