<svg xmlns="http://www.w3.org/2000/svg" viewBox="0 0 960 640">
  <defs>
    <filter id="shadow" x="-20%" y="-20%" width="140%" height="140%">
      <feDropShadow dx="0" dy="2" stdDeviation="4" flood-color="#000" flood-opacity="0.15"/>
    </filter>
  </defs>
  <style>
    text { font-family: "Helvetica Neue", Helvetica, Arial, "PingFang SC", "Microsoft YaHei", sans-serif; }
  </style>
  <rect width="960" height="640" fill="#ffffff"/>
  <text x="480" y="38" text-anchor="middle" font-size="18" font-weight="600" fill="#111827">域随机化的 8 个维度</text>
  <text x="480" y="60" text-anchor="middle" font-size="12" fill="#6b7280">Domain Randomization 的全部随机化参数 — Tobin et al. 2017</text>
  <rect x="415.0" y="117.5" width="130" height="65" rx="8" fill="#ffffff" stroke="#2563eb" stroke-width="1.5" stroke-opacity="0.3"/>
  <rect x="415.0" y="117.5" width="130" height="24" rx="8" fill="#2563eb" fill-opacity="0.15"/>
  <rect x="415.0" y="133.5" width="130" height="8" fill="#2563eb" fill-opacity="0.15"/>
  <text x="480.0" y="134.5" text-anchor="middle" font-size="12" font-weight="600" fill="#2563eb">场景干扰物</text>
  <text x="480.0" y="157.5" text-anchor="middle" font-size="10" fill="#6b7280">数量 0-10</text>
  <text x="480.0" y="173.5" text-anchor="middle" font-size="10" fill="#6b7280">形状随机</text>
  <line x1="480" y1="350" x2="480.0" y2="150.0" stroke="#2563eb" stroke-width="1" stroke-opacity="0.2" stroke-dasharray="4,4"/>
  <rect x="556.4213562373095" y="176.07864376269052" width="130" height="65" rx="8" fill="#ffffff" stroke="#7c3aed" stroke-width="1.5" stroke-opacity="0.3"/>
  <rect x="556.4213562373095" y="176.07864376269052" width="130" height="24" rx="8" fill="#7c3aed" fill-opacity="0.15"/>
  <rect x="556.4213562373095" y="192.07864376269052" width="130" height="8" fill="#7c3aed" fill-opacity="0.15"/>
  <text x="621.4213562373095" y="193.07864376269052" text-anchor="middle" font-size="12" font-weight="600" fill="#7c3aed">物体纹理</text>
  <text x="621.4213562373095" y="216.07864376269052" text-anchor="middle" font-size="10" fill="#6b7280">随机RGB</text>
  <text x="621.4213562373095" y="232.07864376269052" text-anchor="middle" font-size="10" fill="#6b7280">渐变/棋盘</text>
  <line x1="480" y1="350" x2="621.4213562373095" y2="208.57864376269052" stroke="#7c3aed" stroke-width="1" stroke-opacity="0.2" stroke-dasharray="4,4"/>
  <rect x="615.0" y="317.5" width="130" height="65" rx="8" fill="#ffffff" stroke="#059669" stroke-width="1.5" stroke-opacity="0.3"/>
  <rect x="615.0" y="317.5" width="130" height="24" rx="8" fill="#059669" fill-opacity="0.15"/>
  <rect x="615.0" y="333.5" width="130" height="8" fill="#059669" fill-opacity="0.15"/>
  <text x="680.0" y="334.5" text-anchor="middle" font-size="12" font-weight="600" fill="#059669">物体位置</text>
  <text x="680.0" y="357.5" text-anchor="middle" font-size="10" fill="#6b7280">桌面范围内</text>
  <text x="680.0" y="373.5" text-anchor="middle" font-size="10" fill="#6b7280">完全随机</text>
  <line x1="480" y1="350" x2="680.0" y2="350.0" stroke="#059669" stroke-width="1" stroke-opacity="0.2" stroke-dasharray="4,4"/>
  <rect x="556.4213562373095" y="458.9213562373095" width="130" height="65" rx="8" fill="#ffffff" stroke="#ea580c" stroke-width="1.5" stroke-opacity="0.3"/>
  <rect x="556.4213562373095" y="458.9213562373095" width="130" height="24" rx="8" fill="#ea580c" fill-opacity="0.15"/>
  <rect x="556.4213562373095" y="474.9213562373095" width="130" height="8" fill="#ea580c" fill-opacity="0.15"/>
  <text x="621.4213562373095" y="475.9213562373095" text-anchor="middle" font-size="12" font-weight="600" fill="#ea580c">环境纹理</text>
  <text x="621.4213562373095" y="498.9213562373095" text-anchor="middle" font-size="10" fill="#6b7280">桌面/地板</text>
  <text x="621.4213562373095" y="514.9213562373095" text-anchor="middle" font-size="10" fill="#6b7280">天空/机器人</text>
  <line x1="480" y1="350" x2="621.4213562373095" y2="491.4213562373095" stroke="#ea580c" stroke-width="1" stroke-opacity="0.2" stroke-dasharray="4,4"/>
  <rect x="415.0" y="517.5" width="130" height="65" rx="8" fill="#ffffff" stroke="#db2777" stroke-width="1.5" stroke-opacity="0.3"/>
  <rect x="415.0" y="517.5" width="130" height="24" rx="8" fill="#db2777" fill-opacity="0.15"/>
  <rect x="415.0" y="533.5" width="130" height="8" fill="#db2777" fill-opacity="0.15"/>
  <text x="480.0" y="534.5" text-anchor="middle" font-size="12" font-weight="600" fill="#db2777">相机位置</text>
  <text x="480.0" y="557.5" text-anchor="middle" font-size="10" fill="#6b7280">±10×5×10 cm</text>
  <text x="480.0" y="573.5" text-anchor="middle" font-size="10" fill="#6b7280">围绕初始点</text>
  <line x1="480" y1="350" x2="480.0" y2="550.0" stroke="#db2777" stroke-width="1" stroke-opacity="0.2" stroke-dasharray="4,4"/>
  <rect x="273.5786437626905" y="458.9213562373095" width="130" height="65" rx="8" fill="#ffffff" stroke="#0891b2" stroke-width="1.5" stroke-opacity="0.3"/>
  <rect x="273.5786437626905" y="458.9213562373095" width="130" height="24" rx="8" fill="#0891b2" fill-opacity="0.15"/>
  <rect x="273.5786437626905" y="474.9213562373095" width="130" height="8" fill="#0891b2" fill-opacity="0.15"/>
  <text x="338.5786437626905" y="475.9213562373095" text-anchor="middle" font-size="12" font-weight="600" fill="#0891b2">相机朝向</text>
  <text x="338.5786437626905" y="498.9213562373095" text-anchor="middle" font-size="10" fill="#6b7280">±0.1 rad</text>
  <text x="338.5786437626905" y="514.9213562373095" text-anchor="middle" font-size="10" fill="#6b7280">指向桌面</text>
  <line x1="480" y1="350" x2="338.5786437626905" y2="491.4213562373095" stroke="#0891b2" stroke-width="1" stroke-opacity="0.2" stroke-dasharray="4,4"/>
  <rect x="215.0" y="317.5" width="130" height="65" rx="8" fill="#ffffff" stroke="#d97706" stroke-width="1.5" stroke-opacity="0.3"/>
  <rect x="215.0" y="317.5" width="130" height="24" rx="8" fill="#d97706" fill-opacity="0.15"/>
  <rect x="215.0" y="333.5" width="130" height="8" fill="#d97706" fill-opacity="0.15"/>
  <text x="280.0" y="334.5" text-anchor="middle" font-size="12" font-weight="600" fill="#d97706">光照</text>
  <text x="280.0" y="357.5" text-anchor="middle" font-size="10" fill="#6b7280">数量/位置</text>
  <text x="280.0" y="373.5" text-anchor="middle" font-size="10" fill="#6b7280">镜面特性随机</text>
  <line x1="480" y1="350" x2="280.0" y2="350.0" stroke="#d97706" stroke-width="1" stroke-opacity="0.2" stroke-dasharray="4,4"/>
  <rect x="273.5786437626905" y="176.07864376269052" width="130" height="65" rx="8" fill="#ffffff" stroke="#4f46e5" stroke-width="1.5" stroke-opacity="0.3"/>
  <rect x="273.5786437626905" y="176.07864376269052" width="130" height="24" rx="8" fill="#4f46e5" fill-opacity="0.15"/>
  <rect x="273.5786437626905" y="192.07864376269052" width="130" height="8" fill="#4f46e5" fill-opacity="0.15"/>
  <text x="338.5786437626905" y="193.07864376269052" text-anchor="middle" font-size="12" font-weight="600" fill="#4f46e5">图像噪声</text>
  <text x="338.5786437626905" y="216.07864376269052" text-anchor="middle" font-size="10" fill="#6b7280">类型和数量</text>
  <text x="338.5786437626905" y="232.07864376269052" text-anchor="middle" font-size="10" fill="#6b7280">随机添加</text>
  <line x1="480" y1="350" x2="338.5786437626905" y2="208.57864376269052" stroke="#4f46e5" stroke-width="1" stroke-opacity="0.2" stroke-dasharray="4,4"/>
  <circle cx="480" cy="350" r="55" fill="#111827" filter="url(#shadow)"/>
  <text x="480" y="342" text-anchor="middle" font-size="13" font-weight="700" fill="#ffffff">随机化</text>
  <text x="480" y="362" text-anchor="middle" font-size="11" fill="#9ca3af">仿真器</text>
  <rect x="60" y="580" width="840" height="45" rx="10" fill="#f8fafc" stroke="#e2e8f0" stroke-width="1"/>
  <text x="150" y="608" text-anchor="middle" font-size="12" font-weight="600" fill="#2563eb">视觉随机化</text>
  <text x="150" y="622" text-anchor="middle" font-size="10" fill="#6b7280">纹理/光照/噪声</text>
  <line x1="280" y1="590" x2="280" y2="630" stroke="#d1d5db" stroke-width="1"/>
  <text x="480" y="608" text-anchor="middle" font-size="12" font-weight="600" fill="#ea580c">场景随机化</text>
  <text x="480" y="622" text-anchor="middle" font-size="10" fill="#6b7280">物体/相机/干扰物</text>
  <line x1="660" y1="590" x2="660" y2="630" stroke="#d1d5db" stroke-width="1"/>
  <text x="820" y="608" text-anchor="middle" font-size="12" font-weight="600" fill="#059669">动力学随机化</text>
  <text x="820" y="622" text-anchor="middle" font-size="10" fill="#6b7280">物理参数(后续工作)</text>
</svg>