<svg xmlns="http://www.w3.org/2000/svg" viewBox="0 0 960 480">
  <style>
    text { font-family: "Helvetica Neue", Helvetica, Arial, "PingFang SC", "Microsoft YaHei", sans-serif; }
  </style>
  <rect width="960" height="480" fill="#ffffff"/>
  <text x="480" y="35" text-anchor="middle" font-size="18" font-weight="600" fill="#111827">Newton 性能基准</text>
  <text x="480" y="55" text-anchor="middle" font-size="12" fill="#6b7280">MuJoCo Warp vs MJX (JAX) 加速比 — 越高越好</text>
  <rect x="80" y="275" width="100" height="85" rx="4" fill="#2563eb" opacity="0.85"/>
  <text x="130.0" y="267" text-anchor="middle" font-size="14" font-weight="700" fill="#2563eb">152x</text>
  <text x="130.0" y="382" text-anchor="middle" font-size="10" fill="#6b7280">Locomotion</text>
  <text x="130.0" y="398" text-anchor="middle" font-size="10" fill="#6b7280">(RTX 4090)</text>
  <rect x="210" y="185" width="100" height="175" rx="4" fill="#7c3aed" opacity="0.85"/>
  <text x="260.0" y="177" text-anchor="middle" font-size="14" font-weight="700" fill="#7c3aed">313x</text>
  <text x="260.0" y="382" text-anchor="middle" font-size="10" fill="#6b7280">Manipulation</text>
  <text x="260.0" y="398" text-anchor="middle" font-size="10" fill="#6b7280">(RTX 4090)</text>
  <rect x="340" y="219" width="100" height="141" rx="4" fill="#0891b2" opacity="0.85"/>
  <text x="390.0" y="211" text-anchor="middle" font-size="14" font-weight="700" fill="#0891b2">252x</text>
  <text x="390.0" y="382" text-anchor="middle" font-size="10" fill="#6b7280">Locomotion</text>
  <text x="390.0" y="398" text-anchor="middle" font-size="10" fill="#6b7280">(RTX PRO 6000)</text>
  <rect x="470" y="94" width="100" height="266" rx="4" fill="#059669" opacity="0.85"/>
  <text x="520.0" y="86" text-anchor="middle" font-size="14" font-weight="700" fill="#059669">475x</text>
  <text x="520.0" y="382" text-anchor="middle" font-size="10" fill="#6b7280">Manipulation</text>
  <text x="520.0" y="398" text-anchor="middle" font-size="10" fill="#6b7280">(RTX PRO 6000)</text>
  <rect x="600" y="324" width="100" height="36" rx="4" fill="#ea580c" opacity="0.85"/>
  <text x="650.0" y="316" text-anchor="middle" font-size="14" font-weight="700" fill="#ea580c">65x</text>
  <text x="650.0" y="382" text-anchor="middle" font-size="10" fill="#6b7280">Dexterous</text>
  <text x="650.0" y="398" text-anchor="middle" font-size="10" fill="#6b7280">(vs PhysX)</text>
  <rect x="730" y="192" width="100" height="168" rx="4" fill="#d97706" opacity="0.85"/>
  <text x="780.0" y="184" text-anchor="middle" font-size="14" font-weight="700" fill="#d97706">300x</text>
  <text x="780.0" y="382" text-anchor="middle" font-size="10" fill="#6b7280">VBD Cloth</text>
  <text x="780.0" y="398" text-anchor="middle" font-size="10" fill="#6b7280">(vs GPU-IPC)</text>
  <line x1="60" y1="80" x2="60" y2="360" stroke="#d1d5db" stroke-width="1"/>
  <text x="52" y="364" text-anchor="end" font-size="10" fill="#9ca3af">0x</text>
  <text x="52" y="308" text-anchor="end" font-size="10" fill="#9ca3af">100x</text>
  <text x="52" y="252" text-anchor="end" font-size="10" fill="#9ca3af">200x</text>
  <text x="52" y="196" text-anchor="end" font-size="10" fill="#9ca3af">300x</text>
  <text x="52" y="140" text-anchor="end" font-size="10" fill="#9ca3af">400x</text>
  <text x="52" y="84" text-anchor="end" font-size="10" fill="#9ca3af">500x</text>
  <rect x="150" y="420" width="660" height="40" rx="8" fill="#f0fdf4" stroke="#86efac" stroke-width="1"/>
  <text x="480" y="437" text-anchor="middle" font-size="12" fill="#16a34a">基准: MuJoCo Warp 相对 MJX (JAX 版 MuJoCo) 或 PhysX 的加速比 · RTX 4090 可同时运行 4000+ 并行环境</text>
  <text x="480" y="453" text-anchor="middle" font-size="12" fill="#16a34a">数据来源: NVIDIA GTC 2026 Newton GA 发布</text>
</svg>