<svg xmlns="http://www.w3.org/2000/svg" viewBox="0 0 1000 480">
  <style>
    text { font-family: "Helvetica Neue", Helvetica, Arial, "PingFang SC", "Microsoft YaHei", sans-serif; }
  </style>
  <rect width="1000" height="480" fill="#ffffff"/>
  <text x="500" y="35" text-anchor="middle" font-size="18" font-weight="600" fill="#111827">机器人仿真器横向对比</text>
  <text x="500" y="55" text-anchor="middle" font-size="12" fill="#6b7280">2026 年主流仿真平台 — 从快速原型到工业级训练</text>
  <rect x="20" y="70" width="140" height="34" rx="4" fill="#111827"/>
  <text x="85.0" y="92" text-anchor="middle" font-size="11" font-weight="600" fill="#ffffff">仿真器</text>
  <rect x="160" y="70" width="120" height="34" rx="4" fill="#111827"/>
  <text x="215.0" y="92" text-anchor="middle" font-size="11" font-weight="600" fill="#ffffff">物理精度</text>
  <rect x="300" y="70" width="110" height="34" rx="4" fill="#111827"/>
  <text x="330.0" y="92" text-anchor="middle" font-size="11" font-weight="600" fill="#ffffff">渲染质量</text>
  <rect x="385" y="70" width="80" height="34" rx="4" fill="#111827"/>
  <text x="410.0" y="92" text-anchor="middle" font-size="11" font-weight="600" fill="#ffffff">GPU并行</text>
  <rect x="475" y="70" width="100" height="34" rx="4" fill="#111827"/>
  <text x="505.0" y="92" text-anchor="middle" font-size="11" font-weight="600" fill="#ffffff">RL集成</text>
  <rect x="555" y="70" width="80" height="34" rx="4" fill="#111827"/>
  <text x="580.0" y="92" text-anchor="middle" font-size="11" font-weight="600" fill="#ffffff">可微</text>
  <rect x="620" y="70" width="100" height="34" rx="4" fill="#111827"/>
  <text x="655.0" y="92" text-anchor="middle" font-size="11" font-weight="600" fill="#ffffff">学习门槛</text>
  <rect x="710" y="70" width="240" height="34" rx="4" fill="#111827"/>
  <text x="810.0" y="92" text-anchor="middle" font-size="11" font-weight="600" fill="#ffffff">定位</text>
  <rect x="10" y="112" width="980" height="42" rx="4" fill="#f9fafb"/>
  <text x="85.0" y="140" text-anchor="middle" font-size="11" fill="#111827">PyBullet</text>
  <text x="215.0" y="140" text-anchor="middle" font-size="11" fill="#4b5563">★★☆☆☆</text>
  <text x="330.0" y="140" text-anchor="middle" font-size="11" fill="#4b5563">★☆☆☆☆</text>
  <text x="410.0" y="140" text-anchor="middle" font-size="11" fill="#4b5563">✗</text>
  <text x="505.0" y="140" text-anchor="middle" font-size="11" fill="#4b5563">★★☆☆☆</text>
  <text x="580.0" y="140" text-anchor="middle" font-size="11" fill="#4b5563">✗</text>
  <text x="655.0" y="140" text-anchor="middle" font-size="11" fill="#4b5563">★★★★★</text>
  <text x="810.0" y="140" text-anchor="middle" font-size="11" fill="#2563eb">快速原型</text>
  <rect x="10" y="160" width="980" height="42" rx="4" fill="#ffffff"/>
  <text x="85.0" y="188" text-anchor="middle" font-size="11" fill="#111827">MuJoCo
+ MJX</text>
  <text x="215.0" y="188" text-anchor="middle" font-size="11" fill="#4b5563">★★★★☆</text>
  <text x="330.0" y="188" text-anchor="middle" font-size="11" fill="#4b5563">★★☆☆☆</text>
  <text x="410.0" y="188" text-anchor="middle" font-size="11" fill="#4b5563">★★★</text>
  <text x="505.0" y="188" text-anchor="middle" font-size="11" fill="#4b5563">★★★☆☆</text>
  <text x="580.0" y="188" text-anchor="middle" font-size="11" fill="#4b5563">★★★★</text>
  <text x="655.0" y="188" text-anchor="middle" font-size="11" fill="#4b5563">★★★☆☆</text>
  <text x="810.0" y="188" text-anchor="middle" font-size="11" fill="#7c3aed">学术研究</text>
  <rect x="10" y="208" width="980" height="42" rx="4" fill="#f9fafb"/>
  <text x="85.0" y="236" text-anchor="middle" font-size="11" fill="#111827">Isaac Sim</text>
  <text x="215.0" y="236" text-anchor="middle" font-size="11" fill="#4b5563">★★★☆☆</text>
  <text x="330.0" y="236" text-anchor="middle" font-size="11" fill="#4b5563">★★★★☆</text>
  <text x="410.0" y="236" text-anchor="middle" font-size="11" fill="#4b5563">★★★★</text>
  <text x="505.0" y="236" text-anchor="middle" font-size="11" fill="#4b5563">★★☆☆☆</text>
  <text x="580.0" y="236" text-anchor="middle" font-size="11" fill="#4b5563">✗</text>
  <text x="655.0" y="236" text-anchor="middle" font-size="11" fill="#4b5563">★★☆☆☆</text>
  <text x="810.0" y="236" text-anchor="middle" font-size="11" fill="#ea580c">视觉Demo</text>
  <rect x="10" y="256" width="980" height="42" rx="4" fill="#ffffff"/>
  <rect x="10" y="256" width="4" height="42" rx="2" fill="#059669"/>
  <text x="85.0" y="284" text-anchor="middle" font-size="11" fill="#111827">Isaac Lab</text>
  <text x="215.0" y="284" text-anchor="middle" font-size="11" fill="#4b5563">★★★★☆</text>
  <text x="330.0" y="284" text-anchor="middle" font-size="11" fill="#4b5563">★★★★★</text>
  <text x="410.0" y="284" text-anchor="middle" font-size="11" fill="#4b5563">★★★★★</text>
  <text x="505.0" y="284" text-anchor="middle" font-size="11" fill="#4b5563">★★★★★</text>
  <text x="580.0" y="284" text-anchor="middle" font-size="11" fill="#4b5563">★★★</text>
  <text x="655.0" y="284" text-anchor="middle" font-size="11" fill="#4b5563">★★☆☆☆</text>
  <text x="810.0" y="284" text-anchor="middle" font-size="11" fill="#059669">RL训练</text>
  <rect x="10" y="304" width="980" height="42" rx="4" fill="#f9fafb"/>
  <text x="85.0" y="332" text-anchor="middle" font-size="11" fill="#111827">UE5</text>
  <text x="215.0" y="332" text-anchor="middle" font-size="11" fill="#4b5563">★★☆☆☆</text>
  <text x="330.0" y="332" text-anchor="middle" font-size="11" fill="#4b5563">★★★★★</text>
  <text x="410.0" y="332" text-anchor="middle" font-size="11" fill="#4b5563">✗</text>
  <text x="505.0" y="332" text-anchor="middle" font-size="11" fill="#4b5563">✗</text>
  <text x="580.0" y="332" text-anchor="middle" font-size="11" fill="#4b5563">✗</text>
  <text x="655.0" y="332" text-anchor="middle" font-size="11" fill="#4b5563">★★★☆☆</text>
  <text x="810.0" y="332" text-anchor="middle" font-size="11" fill="#dc2626">视觉Demo</text>
  <rect x="25" y="405" width="950" height="58" rx="8" fill="#f0fdf4" stroke="#86efac" stroke-width="1"/>
  <text x="500" y="428" text-anchor="middle" font-size="13" font-weight="600" fill="#16a34a">关键认知: Isaac Lab 和 UE5 不是竞争, 是互补</text>
  <text x="500" y="450" text-anchor="middle" font-size="11" fill="#6b7280">Isaac Lab 做大规模并行 RL 训练 → UE5 做高质量视觉渲染和客户演示</text>
</svg>