<svg xmlns="http://www.w3.org/2000/svg" viewBox="0 0 1020 450">
  <style>text{font-family:"Helvetica Neue",Helvetica,Arial,"PingFang SC","Microsoft YaHei",sans-serif}</style>
  <defs><filter id="s"><feDropShadow dx="0" dy="2" stdDeviation="3" flood-color="#000" flood-opacity="0.08"/></filter><marker id="a" markerWidth="8" markerHeight="6" refX="7" refY="3" orient="auto"><polygon points="0 0,8 3,0 6" fill="#6b7280"/></marker></defs>
  <rect width="1020" height="450" fill="#ffffff"/>
  <text x="510" y="35" text-anchor="middle" font-size="18" font-weight="600" fill="#111827">上交大四连发: 从理论到真机的演进链路</text>
  <text x="510" y="55" text-anchor="middle" font-size="12" fill="#6b7280">Danping Zou &amp; Wenxian Yu · Shanghai Jiao Tong University · 2025–2026</text>
  <rect x="30" y="90" width="170" height="110" rx="8" fill="#ffffff" stroke="#2563eb" stroke-width="1.5" filter="url(#s)"/>
  <rect x="30" y="90" width="170" height="32" rx="8" fill="#2563eb" fill-opacity="0.12"/>
  <rect x="30" y="116" width="170" height="6" fill="#2563eb" fill-opacity="0.12"/>
  <text x="115.0" y="113" text-anchor="middle" font-size="12" font-weight="600" fill="#2563eb">Back to</text>
  <text x="115.0" y="127" text-anchor="middle" font-size="12" font-weight="600" fill="#2563eb">Newton's Laws</text>
  <text x="40" y="140" font-size="10" fill="#4b5563">Nature MI 2025</text>
  <text x="40" y="156" font-size="10" fill="#4b5563">点质量可微</text>
  <text x="40" y="172" font-size="10" fill="#4b5563">高速飞行奠基</text>
  <rect x="235" y="90" width="170" height="110" rx="8" fill="#ffffff" stroke="#7c3aed" stroke-width="1.5" filter="url(#s)"/>
  <rect x="235" y="90" width="170" height="32" rx="8" fill="#7c3aed" fill-opacity="0.12"/>
  <rect x="235" y="116" width="170" height="6" fill="#7c3aed" fill-opacity="0.12"/>
  <text x="320.0" y="113" text-anchor="middle" font-size="12" font-weight="600" fill="#7c3aed">High-Fidelity</text>
  <text x="320.0" y="127" text-anchor="middle" font-size="12" font-weight="600" fill="#7c3aed">Diff Sim</text>
  <text x="245" y="140" font-size="10" fill="#4b5563">2604.10548</text>
  <text x="245" y="156" font-size="10" fill="#4b5563">6DOF + 深度图</text>
  <text x="245" y="172" font-size="10" fill="#4b5563">直接映射控制</text>
  <rect x="440" y="90" width="170" height="110" rx="8" fill="#ffffff" stroke="#ea580c" stroke-width="1.5" filter="url(#s)"/>
  <rect x="440" y="90" width="170" height="32" rx="8" fill="#ea580c" fill-opacity="0.12"/>
  <rect x="440" y="116" width="170" height="6" fill="#ea580c" fill-opacity="0.12"/>
  <text x="525.0" y="113" text-anchor="middle" font-size="12" font-weight="600" fill="#ea580c">VisFly-Lab</text>
  <text x="450" y="140" font-size="10" fill="#4b5563">2603.21123</text>
  <text x="450" y="156" font-size="10" fill="#4b5563">统一多任务框架</text>
  <text x="450" y="172" font-size="10" fill="#4b5563">ABPT 修正梯度</text>
  <rect x="645" y="90" width="170" height="110" rx="8" fill="#ffffff" stroke="#059669" stroke-width="1.5" filter="url(#s)"/>
  <rect x="645" y="90" width="170" height="32" rx="8" fill="#059669" fill-opacity="0.12"/>
  <rect x="645" y="116" width="170" height="6" fill="#059669" fill-opacity="0.12"/>
  <text x="730.0" y="113" text-anchor="middle" font-size="12" font-weight="600" fill="#059669">Gap Traversal</text>
  <text x="655" y="140" font-size="10" fill="#4b5563">2604.02779</text>
  <text x="655" y="156" font-size="10" fill="#4b5563">SE(3) 可微</text>
  <text x="655" y="172" font-size="10" fill="#4b5563">零样本穿越</text>
  <rect x="845" y="90" width="170" height="110" rx="8" fill="#ffffff" stroke="#dc2626" stroke-width="1.5" filter="url(#s)"/>
  <rect x="845" y="90" width="170" height="32" rx="8" fill="#dc2626" fill-opacity="0.12"/>
  <rect x="845" y="116" width="170" height="6" fill="#dc2626" fill-opacity="0.12"/>
  <text x="930.0" y="113" text-anchor="middle" font-size="12" font-weight="600" fill="#dc2626">E2E-Fly</text>
  <text x="855" y="140" font-size="10" fill="#4b5563">2604.12916</text>
  <text x="855" y="156" font-size="10" fill="#4b5563">完整管线</text>
  <text x="855" y="172" font-size="10" fill="#4b5563">六组件 真机部署</text>
  <line x1="200" y1="145" x2="235" y2="145" stroke="#6b7280" stroke-width="1.5" marker-end="url(#a)"/>
  <line x1="405" y1="145" x2="440" y2="145" stroke="#6b7280" stroke-width="1.5" marker-end="url(#a)"/>
  <line x1="610" y1="145" x2="645" y2="145" stroke="#6b7280" stroke-width="1.5" marker-end="url(#a)"/>
  <line x1="815" y1="145" x2="845" y2="145" stroke="#6b7280" stroke-width="1.5" marker-end="url(#a)"/>
  <text x="150" y="280" text-anchor="middle" font-size="13" font-weight="600" fill="#111827">可微仿真</text>
  <text x="260" y="280" text-anchor="middle" font-size="16" font-weight="600" fill="#9ca3af">→</text>
  <text x="370" y="280" text-anchor="middle" font-size="13" font-weight="600" fill="#111827">系统辨识</text>
  <text x="480" y="280" text-anchor="middle" font-size="16" font-weight="600" fill="#9ca3af">→</text>
  <text x="590" y="280" text-anchor="middle" font-size="13" font-weight="600" fill="#111827">域随机化</text>
  <text x="700" y="280" text-anchor="middle" font-size="16" font-weight="600" fill="#9ca3af">→</text>
  <text x="810" y="280" text-anchor="middle" font-size="13" font-weight="600" fill="#111827">真机部署</text>
  <rect x="60" y="330" width="900" height="80" rx="10" fill="#111827" filter="url(#s)"/>
  <text x="510" y="358" text-anchor="middle" font-size="14" font-weight="600" fill="#fbbf24">核心方法论: 可微仿真使端到端优化成为可能 — 梯度穿过物理引擎, 感知和控制联合优化</text>
  <text x="510" y="380" text-anchor="middle" font-size="12" fill="#e5e7eb">Tobin 2017 证明了域随机化可行 → E2E-Fly 2026 证明了可微物理+域随机化可以零样本迁移完整任务</text>
  <text x="510" y="400" text-anchor="middle" font-size="12" fill="#9ca3af">从 1.5cm 定位到自主飞行全任务 — 九年间 Sim-to-Real 的边界被系统性推远</text>
</svg>