<svg xmlns="http://www.w3.org/2000/svg" viewBox="0 0 960 620" width="960" height="620">
<style>
text { font-family: "Helvetica Neue", Helvetica, Arial, "PingFang SC", "Microsoft YaHei", sans-serif; }
</style>
<defs>
  <marker id="arrow-blue" markerWidth="10" markerHeight="7" refX="9" refY="3.5" orient="auto">
    <polygon points="0 0, 10 3.5, 0 7" fill="#2563eb"/>
  </marker>
  <marker id="arrow-orange" markerWidth="10" markerHeight="7" refX="9" refY="3.5" orient="auto">
    <polygon points="0 0, 10 3.5, 0 7" fill="#ea580c"/>
  </marker>
  <marker id="arrow-purple" markerWidth="10" markerHeight="7" refX="9" refY="3.5" orient="auto">
    <polygon points="0 0, 10 3.5, 0 7" fill="#9333ea"/>
  </marker>
  <marker id="arrow-red" markerWidth="10" markerHeight="7" refX="9" refY="3.5" orient="auto">
    <polygon points="0 0, 10 3.5, 0 7" fill="#dc2626"/>
  </marker>
</defs>
<rect width="960" height="620" fill="#ffffff"/>
<text x="480" y="30" fill="#111827" font-size="18" font-weight="600" text-anchor="middle">MAVROS 系统架构</text>
<text x="480" y="48" fill="#6b7280" font-size="13" text-anchor="middle">MAVLink to ROS 2 桥接：三层结构</text>
<rect x="60" y="100" width="220" height="80" rx="8" fill="#fff7ed" stroke="#fed7aa" stroke-width="1.5"/>
<text x="170" y="135" fill="#111827" font-size="15" font-weight="600" text-anchor="middle">飞控 FCU</text>
<text x="170" y="155" fill="#6b7280" font-size="13" text-anchor="middle">PX4 / ArduPilot</text>
<text x="170" y="172" fill="#ea580c" font-size="11" text-anchor="middle">MAVLink 协议</text>
<rect x="60" y="195" width="65" height="28" rx="4" fill="#ffffff" stroke="#d1d5db" stroke-width="1"/>
<text x="92" y="213" fill="#6b7280" font-size="11" text-anchor="middle">UART</text>
<rect x="137" y="195" width="65" height="28" rx="4" fill="#ffffff" stroke="#d1d5db" stroke-width="1"/>
<text x="169" y="213" fill="#6b7280" font-size="11" text-anchor="middle">UDP</text>
<rect x="214" y="195" width="65" height="28" rx="4" fill="#ffffff" stroke="#d1d5db" stroke-width="1"/>
<text x="246" y="213" fill="#6b7280" font-size="11" text-anchor="middle">TCP</text>
<rect x="340" y="80" width="280" height="340" rx="12" fill="#f0fdfa" stroke="#ccfbf1" stroke-width="2"/>
<text x="362" y="100" fill="#0d9488" font-size="13" font-weight="600">mavros_node 容器</text>
<rect x="360" y="115" width="240" height="55" rx="8" fill="#fff7ed" stroke="#fed7aa" stroke-width="1.5"/>
<text x="480" y="138" fill="#111827" font-size="14" font-weight="600" text-anchor="middle">Router</text>
<text x="480" y="155" fill="#6b7280" font-size="12" text-anchor="middle">MAVLink 端点管理器</text>
<rect x="360" y="190" width="240" height="210" rx="8" fill="#eff6ff" stroke="#bfdbfe" stroke-width="1.5"/>
<text x="480" y="212" fill="#111827" font-size="14" font-weight="600" text-anchor="middle">UAS（插件容器）</text>
<text x="480" y="228" fill="#6b7280" font-size="12" text-anchor="middle">MAVLink to ROS 2 翻译</text>
<rect x="375" y="240" width="105" height="40" rx="6" fill="#ffffff" stroke="#d1d5db" stroke-width="1"/>
<text x="427" y="257" fill="#111827" font-size="12" font-weight="600" text-anchor="middle">sys_status</text>
<text x="427" y="272" fill="#6b7280" font-size="10" text-anchor="middle">心跳/状态</text>
<rect x="490" y="240" width="95" height="40" rx="6" fill="#ffffff" stroke="#d1d5db" stroke-width="1"/>
<text x="537" y="257" fill="#111827" font-size="12" font-weight="600" text-anchor="middle">imu</text>
<text x="537" y="272" fill="#6b7280" font-size="10" text-anchor="middle">IMU 数据</text>
<rect x="375" y="290" width="105" height="40" rx="6" fill="#ffffff" stroke="#d1d5db" stroke-width="1"/>
<text x="427" y="307" fill="#111827" font-size="12" font-weight="600" text-anchor="middle">local_position</text>
<text x="427" y="322" fill="#6b7280" font-size="10" text-anchor="middle">位置/里程计</text>
<rect x="490" y="290" width="95" height="40" rx="6" fill="#ffffff" stroke="#d1d5db" stroke-width="1"/>
<text x="537" y="307" fill="#111827" font-size="12" font-weight="600" text-anchor="middle">command</text>
<text x="537" y="322" fill="#6b7280" font-size="10" text-anchor="middle">服务命令</text>
<rect x="375" y="340" width="210" height="30" rx="6" fill="#ffffff" stroke="#d1d5db" stroke-width="1"/>
<text x="480" y="359" fill="#111827" font-size="11" text-anchor="middle">setpoint / attitude / velocity</text>
<text x="480" y="383" fill="#6b7280" font-size="11" text-anchor="middle">+ 30+ 插件</text>
<rect x="360" y="415" width="240" height="45" rx="8" fill="#fef2f2" stroke="#fee2e2" stroke-width="1.5"/>
<text x="480" y="433" fill="#111827" font-size="13" font-weight="600" text-anchor="middle">GCS Proxy</text>
<text x="480" y="449" fill="#6b7280" font-size="11" text-anchor="middle">gcs_url: 向地面站转发</text>
<line x1="280" y1="140" x2="358" y2="140" stroke="#ea580c" stroke-width="1.5" marker-end="url(#arrow-orange)"/>
<rect x="285" y="128" width="60" height="18" rx="3" fill="#ffffff" opacity="0.95"/>
<text x="315" y="141" fill="#ea580c" font-size="11" text-anchor="middle">fcu_url</text>
<line x1="480" y1="170" x2="480" y2="188" stroke="#ea580c" stroke-width="1.5" marker-end="url(#arrow-orange)"/>
<line x1="480" y1="400" x2="480" y2="413" stroke="#dc2626" stroke-width="1.5" marker-end="url(#arrow-red)"/>
<line x1="600" y1="260" x2="670" y2="260" stroke="#2563eb" stroke-width="1.5" marker-end="url(#arrow-blue)"/>
<line x1="600" y1="310" x2="670" y2="310" stroke="#2563eb" stroke-width="1.5" marker-end="url(#arrow-blue)"/>
<line x1="600" y1="355" x2="670" y2="355" stroke="#2563eb" stroke-width="1.5" marker-end="url(#arrow-blue)"/>
<rect x="680" y="230" width="200" height="60" rx="8" fill="#eff6ff" stroke="#bfdbfe" stroke-width="1.5"/>
<text x="780" y="255" fill="#111827" font-size="14" font-weight="600" text-anchor="middle">Offboard 控制</text>
<text x="780" y="275" fill="#6b7280" font-size="12" text-anchor="middle">Python / C++</text>
<rect x="680" y="300" width="200" height="60" rx="8" fill="#eff6ff" stroke="#bfdbfe" stroke-width="1.5"/>
<text x="780" y="325" fill="#111827" font-size="14" font-weight="600" text-anchor="middle">视觉导航</text>
<text x="780" y="345" fill="#6b7280" font-size="12" text-anchor="middle">VIO / SLAM</text>
<rect x="680" y="370" width="200" height="50" rx="8" fill="#eff6ff" stroke="#bfdbfe" stroke-width="1.5"/>
<text x="780" y="392" fill="#111827" font-size="13" font-weight="600" text-anchor="middle">其他 ROS 2 节点</text>
<rect x="360" y="480" width="240" height="50" rx="8" fill="#faf5ff" stroke="#ede9fe" stroke-width="1.5"/>
<text x="480" y="502" fill="#111827" font-size="14" font-weight="600" text-anchor="middle">地面站 QGC</text>
<text x="480" y="518" fill="#6b7280" font-size="12" text-anchor="middle">UDP :14550</text>
<line x1="480" y1="460" x2="480" y2="478" stroke="#9333ea" stroke-width="1.5" marker-end="url(#arrow-purple)"/>
<rect x="456" y="462" width="50" height="18" rx="3" fill="#ffffff" opacity="0.95"/>
<text x="466" y="475" fill="#9333ea" font-size="11">转发</text>
<text x="60" y="555" fill="#111827" font-size="14" font-weight="600">图例</text>
<rect x="60" y="570" width="18" height="12" rx="2" fill="#fff7ed" stroke="#fed7aa" stroke-width="1.5"/>
<text x="84" y="580" fill="#6b7280" font-size="12">飞控 FCU</text>
<rect x="170" y="570" width="18" height="12" rx="2" fill="#fff7ed" stroke="#fed7aa" stroke-width="1.5"/>
<text x="194" y="580" fill="#6b7280" font-size="12">Router</text>
<rect x="270" y="570" width="18" height="12" rx="2" fill="#eff6ff" stroke="#bfdbfe" stroke-width="1.5"/>
<text x="294" y="580" fill="#6b7280" font-size="12">UAS 插件</text>
<rect x="380" y="570" width="18" height="12" rx="2" fill="#eff6ff" stroke="#bfdbfe" stroke-width="1.5"/>
<text x="404" y="580" fill="#6b7280" font-size="12">ROS 2 节点</text>
<rect x="500" y="570" width="18" height="12" rx="2" fill="#fef2f2" stroke="#fee2e2" stroke-width="1.5"/>
<text x="524" y="580" fill="#6b7280" font-size="12">GCS 代理</text>
<line x1="60" y1="592" x2="78" y2="592" stroke="#ea580c" stroke-width="1.5" marker-end="url(#arrow-orange)"/>
<text x="84" y="595" fill="#6b7280" font-size="12">MAVLink</text>
<line x1="170" y1="592" x2="188" y2="592" stroke="#2563eb" stroke-width="1.5" marker-end="url(#arrow-blue)"/>
<text x="194" y="595" fill="#6b7280" font-size="12">ROS 2 话题/服务</text>
</svg>