<svg xmlns="http://www.w3.org/2000/svg" viewBox="0 0 960 600">
<style>
text { font-family: "Helvetica Neue", Helvetica, Arial, "PingFang SC", "Microsoft YaHei", "Microsoft JhengHei", "SimHei", sans-serif; }
</style>
<defs>
<marker id="arr" markerWidth="10" markerHeight="7" refX="9" refY="3.5" orient="auto"><polygon points="0 0, 10 3.5, 0 7" fill="#2563eb"/></marker>
<marker id="arrg" markerWidth="10" markerHeight="7" refX="9" refY="3.5" orient="auto"><polygon points="0 0, 10 3.5, 0 7" fill="#16a34a"/></marker>
</defs>
<rect width="960" height="600" fill="#ffffff"/>
<text x="480" y="34" text-anchor="middle" font-size="20" font-weight="600" fill="#111827">MDP：马尔可夫决策过程</text>
<rect x="200" y="100" width="160" height="100" rx="6" fill="#dcfce7" stroke="#d1d5db" stroke-width="1.5"/>
<text x="280" y="140" text-anchor="middle" font-size="14" font-weight="600" fill="#15803d">S₀</text>
<text x="280" y="165" text-anchor="middle" font-size="12" fill="#6b7280">起点</text>
<rect x="380" y="100" width="160" height="100" rx="6" fill="#ffffff" stroke="#d1d5db" stroke-width="1.5"/>
<rect x="560" y="100" width="160" height="100" rx="6" fill="#fef2f2" stroke="#d1d5db" stroke-width="1.5"/>
<text x="640" y="140" text-anchor="middle" font-size="14" font-weight="600" fill="#dc2626">⚠</text>
<text x="640" y="165" text-anchor="middle" font-size="12" fill="#6b7280">陷阱 r=-10</text>
<rect x="200" y="220" width="160" height="100" rx="6" fill="#ffffff" stroke="#d1d5db" stroke-width="1.5"/>
<text x="280" y="260" text-anchor="middle" font-size="14" fill="#374151">S₂</text>
<text x="280" y="285" text-anchor="middle" font-size="12" fill="#6b7280">安全路径</text>
<rect x="380" y="220" width="160" height="100" rx="6" fill="#d1d5db" stroke="#d1d5db" stroke-width="1.5"/>
<text x="460" y="275" text-anchor="middle" font-size="14" fill="#6b7280">墙</text>
<rect x="560" y="220" width="160" height="100" rx="6" fill="#ffffff" stroke="#d1d5db" stroke-width="1.5"/>
<rect x="200" y="340" width="160" height="100" rx="6" fill="#ffffff" stroke="#d1d5db" stroke-width="1.5"/>
<text x="280" y="395" text-anchor="middle" font-size="14" fill="#6b7280">S₃</text>
<rect x="380" y="340" width="160" height="100" rx="6" fill="#ffffff" stroke="#d1d5db" stroke-width="1.5"/>
<rect x="560" y="340" width="160" height="100" rx="6" fill="#ffffff" stroke="#d1d5db" stroke-width="1.5"/>
<rect x="200" y="460" width="160" height="100" rx="6" fill="#ffffff" stroke="#d1d5db" stroke-width="1.5"/>
<text x="280" y="515" text-anchor="middle" font-size="14" fill="#6b7280">S₄</text>
<rect x="380" y="460" width="160" height="100" rx="6" fill="#ffffff" stroke="#d1d5db" stroke-width="1.5"/>
<rect x="560" y="460" width="160" height="100" rx="6" fill="#eff6ff" stroke="#d1d5db" stroke-width="1.5"/>
<text x="640" y="500" text-anchor="middle" font-size="14" font-weight="600" fill="#2563eb">⭐</text>
<text x="640" y="525" text-anchor="middle" font-size="12" fill="#6b7280">目标 r=+10</text>
<path d="M 370 150 L 500 150" stroke="#2563eb" stroke-width="1.5" fill="none" marker-end="url(#arr)"/>
<text x="435" y="142" text-anchor="middle" font-size="11" fill="#2563eb">→</text>
<path d="M 290 200 L 290 320" stroke="#2563eb" stroke-width="1.5" fill="none" marker-end="url(#arr)"/>
<text x="278" y="265" font-size="11" fill="#2563eb">↓</text>
<path d="M 290 450 L 460 450" stroke="#16a34a" stroke-width="2" fill="none" marker-end="url(#arrg)"/>
<rect x="340" y="440" width="80" height="18" rx="4" fill="#ffffff" opacity="0.95"/>
<text x="380" y="454" text-anchor="middle" font-size="11" fill="#16a34a">最优!</text>
<rect x="15" y="55" width="150" height="535" rx="0" fill="none"/>
<text x="90" y="85" text-anchor="middle" font-size="14" font-weight="600" fill="#111827">MDP 五要素</text>
<circle cx="40" cy="130" r="16" fill="#f9fafb" stroke="#111827" stroke-width="1.5"/>
<text x="40" y="135" text-anchor="middle" font-size="14" font-weight="600" fill="#111827">S</text>
<text x="65" y="135" font-size="13" fill="#374151">状态空间</text>
<circle cx="40" cy="215" r="16" fill="#f9fafb" stroke="#2563eb" stroke-width="1.5"/>
<text x="40" y="220" text-anchor="middle" font-size="14" font-weight="600" fill="#2563eb">A</text>
<text x="65" y="220" font-size="13" fill="#374151">动作空间</text>
<circle cx="40" cy="300" r="16" fill="#f9fafb" stroke="#ea580c" stroke-width="1.5"/>
<text x="40" y="305" text-anchor="middle" font-size="14" font-weight="600" fill="#ea580c">P</text>
<text x="65" y="305" font-size="13" fill="#374151">转移概率</text>
<circle cx="40" cy="385" r="16" fill="#f9fafb" stroke="#16a34a" stroke-width="1.5"/>
<text x="40" y="390" text-anchor="middle" font-size="14" font-weight="600" fill="#16a34a">R</text>
<text x="65" y="390" font-size="13" fill="#374151">奖励函数</text>
<circle cx="40" cy="470" r="16" fill="#f9fafb" stroke="#7c3aed" stroke-width="1.5"/>
<text x="40" y="475" text-anchor="middle" font-size="14" font-weight="600" fill="#7c3aed">γ</text>
<text x="65" y="475" font-size="13" fill="#374151">折扣因子</text>
<rect x="25" y="535" width="910" height="48" rx="8" fill="#f9fafb" stroke="#e5e7eb" stroke-width="1"/>
<text x="480" y="562" text-anchor="middle" font-size="13" fill="#374151">核心假设（马尔可夫性）：P(sₜ₊₁ | sₜ, aₜ) — 未来只取决于现在，与过去无关</text>
</svg>