<svg xmlns="http://www.w3.org/2000/svg" viewBox="0 0 720 420">
<style>text{font-family:"WenQuanYi Zen Hei","Noto Sans CJK SC","PingFang SC","Microsoft YaHei",sans-serif}</style>
<rect width="720" height="420" fill="#ffffff"/>
<text x="360" y="30" text-anchor="middle" font-size="16" font-weight="700" fill="#111827">圆的有关定理</text>
<rect x="20" y="48" width="330" height="355" rx="8" fill="#eff6ff" stroke="#d1d5db" stroke-width="1"/>
<text x="185" y="73" text-anchor="middle" font-size="14" font-weight="700" fill="#2563eb">圆周角定理</text>
<circle cx="185" cy="220" r="80" fill="none" stroke="#374151" stroke-width="1.5"/>
<circle cx="185" cy="220" r="3" fill="#111827"/>
<text x="175" y="237" font-size="11" fill="#111827">O</text>
<circle cx="116" cy="180" r="4" fill="#2563eb"/>
<text x="98" y="176" font-size="12" font-weight="600" fill="#2563eb">A</text>
<circle cx="254" cy="180" r="4" fill="#2563eb"/>
<text x="262" y="176" font-size="12" font-weight="600" fill="#2563eb">B</text>
<circle cx="185" cy="300" r="4" fill="#dc2626"/>
<text x="198" y="304" font-size="12" font-weight="600" fill="#dc2626">C</text>
<line x1="185" y1="220" x2="116" y2="180" stroke="#9ca3af" stroke-width="1" stroke-dasharray="3,3"/>
<line x1="185" y1="220" x2="254" y2="180" stroke="#9ca3af" stroke-width="1" stroke-dasharray="3,3"/>
<path d="M 150,200 A 40,40 0 0,1 220,200" fill="none" stroke="#374151" stroke-width="1.5"/>
<text x="205" y="215" font-size="12" font-weight="700" fill="#374151">120°</text>
<line x1="116" y1="180" x2="185" y2="300" stroke="#dc2626" stroke-width="1.5"/>
<line x1="254" y1="180" x2="185" y2="300" stroke="#dc2626" stroke-width="1.5"/>
<text x="185" y="310" text-anchor="middle" font-size="12" font-weight="700" fill="#dc2626">60°</text>
<text x="185" y="345" text-anchor="middle" font-size="12" fill="#374151">圆周角=½圆心角=60°</text>
<rect x="370" y="48" width="330" height="355" rx="8" fill="#fef3c7" stroke="#d1d5db" stroke-width="1"/>
<text x="535" y="73" text-anchor="middle" font-size="14" font-weight="700" fill="#d97706">切线定理</text>
<circle cx="535" cy="190" r="70" fill="none" stroke="#374151" stroke-width="1.5"/>
<circle cx="535" cy="190" r="3" fill="#111827"/>
<text x="525" y="207" font-size="11" fill="#111827">O</text>
<circle cx="535" cy="320" r="4" fill="#d97706"/>
<text x="543" y="330" font-size="12" font-weight="600" fill="#d97706">P</text>
<circle cx="476" cy="152" r="3.5" fill="#2563eb"/>
<text x="458" y="158" font-size="12" font-weight="600" fill="#2563eb">A</text>
<circle cx="594" cy="152" r="3.5" fill="#2563eb"/>
<text x="602" y="158" font-size="12" font-weight="600" fill="#2563eb">B</text>
<line x1="476" y1="152" x2="535" y2="320" stroke="#d97706" stroke-width="2"/>
<line x1="594" y1="152" x2="535" y2="320" stroke="#d97706" stroke-width="2"/>
<line x1="535" y1="190" x2="476" y2="152" stroke="#9ca3af" stroke-width="1" stroke-dasharray="3,3"/>
<line x1="535" y1="190" x2="594" y2="152" stroke="#9ca3af" stroke-width="1" stroke-dasharray="3,3"/>
<rect x="472" y="148" width="5" height="5" fill="#d97706" opacity="0.7"/>
<rect x="590" y="148" width="5" height="5" fill="#d97706" opacity="0.7"/>
<text x="535" y="345" text-anchor="middle" font-size="12" fill="#374151">PA=PB,OP平分∠APB</text>
<text x="535" y="368" text-anchor="middle" font-size="11" fill="#6b7280">切线⊥过切点的半径</text>
</svg>